<svg xmlns="http://www.w3.org/2000/svg" width="28" height="28" viewBox="0 0 28 28" fill="none">
  <path opacity="0.2" d="M14.875 11.8125C14.875 12.9374 14.5414 14.037 13.9165 14.9723C13.2915 15.9076 12.4033 16.6366 11.364 17.0671C10.3248 17.4975 9.18119 17.6102 8.07793 17.3907C6.97466 17.1713 5.96124 16.6296 5.16583 15.8342C4.37042 15.0388 3.82874 14.0253 3.60929 12.9221C3.38983 11.8188 3.50246 10.6752 3.93294 9.63599C4.36341 8.59673 5.09239 7.70847 6.0277 7.08352C6.963 6.45857 8.06262 6.125 9.1875 6.125C10.6959 6.125 12.1426 6.72422 13.2092 7.79083C14.2758 8.85744 14.875 10.3041 14.875 11.8125Z" fill="#212C26"/>
  <path d="M12.8242 17.2725C13.9969 16.4918 14.8873 15.3544 15.3636 14.0285C15.8399 12.7026 15.8768 11.2587 15.469 9.91014C15.0612 8.56163 14.2302 7.38016 13.099 6.54044C11.9678 5.70072 10.5963 5.24734 9.18749 5.24734C7.77866 5.24734 6.40723 5.70072 5.27599 6.54044C4.14476 7.38016 3.31379 8.56163 2.90597 9.91014C2.49814 11.2587 2.53511 12.7026 3.01141 14.0285C3.48771 15.3544 4.37805 16.4918 5.55077 17.2725C3.42944 18.0544 1.61777 19.5012 0.386087 21.397C0.321354 21.4932 0.276391 21.6014 0.25381 21.7151C0.23123 21.8288 0.231482 21.9459 0.254554 22.0596C0.277625 22.1732 0.323055 22.2811 0.388203 22.3771C0.453351 22.473 0.536916 22.555 0.634043 22.6184C0.731169 22.6817 0.839919 22.7251 0.953971 22.7461C1.06802 22.767 1.1851 22.7651 1.2984 22.7404C1.4117 22.7157 1.51896 22.6688 1.61395 22.6022C1.70894 22.5357 1.78976 22.451 1.85171 22.353C2.6462 21.131 3.73335 20.1269 5.01444 19.4318C6.29553 18.7366 7.72997 18.3725 9.18749 18.3725C10.645 18.3725 12.0795 18.7366 13.3605 19.4318C14.6416 20.1269 15.7288 21.131 16.5233 22.353C16.6516 22.5437 16.8499 22.6763 17.0752 22.722C17.3005 22.7678 17.5347 22.723 17.7273 22.5974C17.9198 22.4718 18.0552 22.2755 18.1042 22.0509C18.1531 21.8262 18.1117 21.5914 17.9889 21.397C16.7572 19.5012 14.9455 18.0544 12.8242 17.2725ZM4.37499 11.8125C4.37499 10.8607 4.65724 9.93023 5.18605 9.13882C5.71485 8.34741 6.46646 7.73058 7.34583 7.36633C8.2252 7.00208 9.19283 6.90678 10.1264 7.09247C11.0599 7.27816 11.9174 7.73651 12.5904 8.40955C13.2635 9.08259 13.7218 9.94009 13.9075 10.8736C14.0932 11.8072 13.9979 12.7748 13.6337 13.6542C13.2694 14.5335 12.6526 15.2851 11.8612 15.8139C11.0698 16.3428 10.1393 16.625 9.18749 16.625C7.91158 16.6236 6.68835 16.1161 5.78614 15.2139C4.88393 14.3116 4.37644 13.0884 4.37499 11.8125ZM27.3591 22.6078C27.1647 22.7346 26.928 22.7789 26.7009 22.7311C26.4738 22.6833 26.2751 22.5473 26.1483 22.353C25.3547 21.1303 24.2677 20.1257 22.9864 19.4309C21.705 18.736 20.2701 18.373 18.8125 18.375C18.5804 18.375 18.3579 18.2828 18.1938 18.1187C18.0297 17.9546 17.9375 17.7321 17.9375 17.5C17.9375 17.2679 18.0297 17.0454 18.1938 16.8813C18.3579 16.7172 18.5804 16.625 18.8125 16.625C19.5212 16.6243 20.221 16.4671 20.862 16.1647C21.5029 15.8622 22.0691 15.4219 22.5201 14.8752C22.9711 14.3285 23.2959 13.689 23.4711 13.0023C23.6463 12.3155 23.6677 11.5986 23.5337 10.9027C23.3997 10.2067 23.1136 9.54897 22.696 8.9764C22.2783 8.40383 21.7393 7.93057 21.1176 7.59044C20.4958 7.25031 19.8066 7.05171 19.0992 7.00882C18.3918 6.96593 17.6836 7.07982 17.0253 7.34234C16.918 7.38874 16.8024 7.41316 16.6855 7.41415C16.5686 7.41513 16.4526 7.39268 16.3445 7.3481C16.2364 7.30352 16.1384 7.23772 16.0561 7.1546C15.9739 7.07148 15.9091 6.97272 15.8657 6.86415C15.8223 6.75558 15.801 6.6394 15.8033 6.52249C15.8055 6.40558 15.8311 6.2903 15.8787 6.18346C15.9262 6.07663 15.9947 5.98041 16.08 5.90048C16.1654 5.82055 16.2659 5.75855 16.3756 5.71812C17.8822 5.11727 19.558 5.09565 21.0796 5.65743C22.6012 6.21921 23.8608 7.32458 24.6155 8.7603C25.3702 10.196 25.5664 11.8604 25.1664 13.4323C24.7664 15.0041 23.7984 16.3722 22.4492 17.2725C24.5705 18.0544 26.3822 19.5012 27.6139 21.397C27.7406 21.5914 27.785 21.8281 27.7372 22.0552C27.6894 22.2823 27.5534 22.481 27.3591 22.6078Z" fill="#212C26"/>
</svg>