<svg xmlns="http://www.w3.org/2000/svg" width="28" height="28" viewBox="0 0 28 28" fill="none">
  <path opacity="0.2" d="M24.5 14C24.5 16.0767 23.8842 18.1068 22.7304 19.8335C21.5767 21.5602 19.9368 22.906 18.0182 23.7007C16.0996 24.4955 13.9884 24.7034 11.9516 24.2982C9.91476 23.8931 8.04383 22.8931 6.57538 21.4246C5.10693 19.9562 4.1069 18.0852 3.70176 16.0484C3.29661 14.0116 3.50455 11.9004 4.29927 9.98182C5.09399 8.0632 6.4398 6.42332 8.16652 5.26957C9.89323 4.11581 11.9233 3.5 14 3.5C16.7848 3.5 19.4555 4.60625 21.4246 6.57538C23.3938 8.54451 24.5 11.2152 24.5 14Z" fill="#212C26"/>
  <path d="M14 2.625C11.7502 2.625 9.551 3.29213 7.68039 4.54203C5.80978 5.79193 4.35182 7.56847 3.49088 9.64698C2.62993 11.7255 2.40467 14.0126 2.84357 16.2192C3.28248 18.4257 4.36584 20.4525 5.95667 22.0433C7.54749 23.6342 9.57432 24.7175 11.7809 25.1564C13.9874 25.5953 16.2745 25.3701 18.353 24.5091C20.4315 23.6482 22.2081 22.1902 23.458 20.3196C24.7079 18.449 25.375 16.2498 25.375 14C25.3718 10.9841 24.1724 8.09271 22.0398 5.96018C19.9073 3.82764 17.0159 2.62818 14 2.625ZM14 23.625C12.0964 23.625 10.2355 23.0605 8.65264 22.0029C7.06982 20.9453 5.83616 19.4421 5.10766 17.6833C4.37917 15.9246 4.18856 13.9893 4.55995 12.1223C4.93133 10.2552 5.84802 8.54018 7.1941 7.1941C8.54018 5.84802 10.2552 4.93132 12.1223 4.55994C13.9893 4.18856 15.9246 4.37917 17.6833 5.10766C19.4421 5.83615 20.9453 7.06981 22.0029 8.65264C23.0605 10.2355 23.625 12.0964 23.625 14C23.6221 16.5518 22.6071 18.9983 20.8027 20.8027C18.9983 22.6071 16.5518 23.6221 14 23.625ZM21 14C21 14.2321 20.9078 14.4546 20.7437 14.6187C20.5796 14.7828 20.3571 14.875 20.125 14.875H14C13.7679 14.875 13.5454 14.7828 13.3813 14.6187C13.2172 14.4546 13.125 14.2321 13.125 14V7.875C13.125 7.64294 13.2172 7.42038 13.3813 7.25628C13.5454 7.09219 13.7679 7 14 7C14.2321 7 14.4546 7.09219 14.6187 7.25628C14.7828 7.42038 14.875 7.64294 14.875 7.875V13.125H20.125C20.3571 13.125 20.5796 13.2172 20.7437 13.3813C20.9078 13.5454 21 13.7679 21 14Z" fill="#212C26"/>
</svg>