<svg style="display:none">
	<symbol id="Logo" viewBox="0 0 70 25" fill="none"
		xmlns="http://www.w3.org/2000/svg">
		<path d="M59.4431 20.8319C56.8399 20.8319 56.3938 18.2622 57.2157 15.7614C57.8665 13.7738 59.4079 11.6839 61.7041 11.6839C64.4112 11.6839 64.6847 14.4246 63.8964 16.8231C63.2104 18.8795 61.6689 20.8319 59.4431 20.8319ZM58.6548 24.4968C63.1768 24.4968 67.2191 21.9959 68.8293 17.4739C70.5083 12.7121 68.6231 7.9502 62.4573 7.9502C57.5243 7.9502 53.7554 11.0331 52.3163 15.1106C50.7061 19.7014 52.4538 24.4968 58.6548 24.4968ZM43.6497 24.4968C45.431 24.4968 47.2474 24.1194 48.5139 23.5726C48.96 22.3397 48.9936 21.1405 48.6514 19.9412C47.7607 20.2834 46.5279 20.6272 45.2599 20.6272C41.8332 20.6272 41.5262 18.0927 42.2457 15.9341C43.034 13.6395 45.0888 11.7894 48.3444 11.7894C49.2014 11.7894 50.0233 11.9269 50.5366 12.2356C51.4273 11.0363 51.9405 9.83704 52.0445 8.6042C51.2913 8.26201 50.0233 7.9534 48.3795 7.9534C43.0356 7.9534 38.8206 11.0715 37.3144 15.3872C35.8752 19.4647 36.9722 24.5 43.6528 24.5L43.6497 24.4968ZM25.253 14.6645C26.1772 12.6081 27.6163 11.4105 29.5016 11.4105C31.1805 11.4105 31.454 12.3347 31.1805 13.0543C30.7696 14.0472 29.3641 14.6645 25.253 14.6645ZM26.7257 24.4968C28.4734 24.4968 30.9391 24.1546 32.9954 23.1264C33.3376 21.9959 33.304 20.8654 32.9267 19.6998C31.6251 20.3506 29.8086 20.7279 28.1648 20.7279C25.7327 20.7279 24.3959 19.9396 24.4311 17.9536C31.0766 18.1247 34.5369 16.9255 35.6674 13.9801C36.7979 10.9995 34.8455 7.9502 30.2195 7.9502C25.2866 7.9502 21.6552 11.4792 20.3184 15.2817C18.9145 19.324 19.8051 24.4968 26.7241 24.4968H26.7257ZM6.86752 24.4968C11.4247 24.4968 14.0167 22.4069 17.0309 16.0012C18.6746 12.4722 20.0802 9.01195 21.6904 5.58686L23.6092 6.20408C24.1225 6.37517 24.3975 6.06656 24.1577 5.58686L21.8279 0.824993C21.6568 0.482804 21.2794 0.447625 21.0396 0.551561L15.2496 2.74381C14.7699 2.9149 14.8034 3.36103 15.2831 3.49695L16.9957 4.04541C15.5917 7.23224 13.844 12.0277 12.4385 15.0418C10.8619 18.3998 10.0751 20.7631 7.40319 20.7631C4.73124 20.7631 4.28511 18.6732 5.41562 15.6926C6.71721 12.2324 8.90946 11.2042 11.4103 11.9237C12.0963 10.9643 12.6096 9.52523 12.8143 8.22363C12.0947 8.01736 11.2376 7.9502 10.5197 7.9502C6.47736 7.9502 2.46863 10.0401 0.824847 14.4246C-1.29864 20.0771 0.664946 24.4968 6.86592 24.4968H6.86752Z" fill="currentColor" />
	</symbol>
	<symbol id="ChevronLeft"
		xmlns="http://www.w3.org/2000/svg" fill="none" viewBox="0 0 24 24" stroke="currentColor">
		<path stroke-linecap="round" stroke-linejoin="round" d="M15.75 19.5L8.25 12l7.5-7.5" />
	</symbol>
	<symbol id="ChevronRight"
		xmlns="http://www.w3.org/2000/svg" fill="none" viewBox="0 0 24 24" stroke="currentColor">
		<path stroke-linecap="round" stroke-linejoin="round" d="M8.25 4.5l7.5 7.5-7.5 7.5" />
	</symbol>
	<symbol id="ChevronUp"
		xmlns="http://www.w3.org/2000/svg" fill="none" viewBox="0 0 24 24" stroke="currentColor">
		<path stroke-linecap="round" stroke-linejoin="round" d="M4.5 15.75l7.5-7.5 7.5 7.5" />
	</symbol>
	<symbol id="ChevronDown"
		xmlns="http://www.w3.org/2000/svg" fill="none" viewBox="0 0 24 24" stroke="currentColor">
		<path stroke-linecap="round" stroke-linejoin="round" d="M19.5 8.25l-7.5 7.5-7.5-7.5" />
	</symbol>
	<symbol id="QuestionMarkCircle"
		xmlns="http://www.w3.org/2000/svg" fill="none" viewBox="0 0 24 24" stroke="currentColor">
		<path stroke-linecap="round" stroke-linejoin="round" d="M9.879 7.519c1.171-1.025 3.071-1.025 4.242 0 1.172 1.025 1.172 2.687 0 3.712-.203.179-.43.326-.67.442-.745.361-1.45.999-1.45 1.827v.75M21 12a9 9 0 11-18 0 9 9 0 0118 0zm-9 5.25h.008v.008H12v-.008z" />
	</symbol>
	<symbol id="User" width="20" height="20" viewBox="0 0 20 20" fill="none"
		xmlns="http://www.w3.org/2000/svg">
		<path fill-rule="evenodd" clip-rule="evenodd" d="M10.0003 3.33366C8.61961 3.33366 7.50033 4.45295 7.50033 5.83366C7.50033 7.21437 8.61961 8.33366 10.0003 8.33366C11.381 8.33366 12.5003 7.21437 12.5003 5.83366C12.5003 4.45295 11.381 3.33366 10.0003 3.33366ZM5.83366 5.83366C5.83366 3.53247 7.69914 1.66699 10.0003 1.66699C12.3015 1.66699 14.167 3.53247 14.167 5.83366C14.167 8.13484 12.3015 10.0003 10.0003 10.0003C7.69914 10.0003 5.83366 8.13484 5.83366 5.83366ZM8.33366 13.3337C7.67062 13.3337 7.03473 13.597 6.56589 14.0659C6.09705 14.5347 5.83366 15.1706 5.83366 15.8337V17.5003C5.83366 17.9606 5.46056 18.3337 5.00033 18.3337C4.54009 18.3337 4.16699 17.9606 4.16699 17.5003V15.8337C4.16699 14.7286 4.60598 13.6688 5.38738 12.8874C6.16878 12.106 7.22859 11.667 8.33366 11.667H11.667C12.7721 11.667 13.8319 12.106 14.6133 12.8874C15.3947 13.6688 15.8337 14.7286 15.8337 15.8337V17.5003C15.8337 17.9606 15.4606 18.3337 15.0003 18.3337C14.5401 18.3337 14.167 17.9606 14.167 17.5003V15.8337C14.167 15.1706 13.9036 14.5347 13.4348 14.0659C12.9659 13.597 12.33 13.3337 11.667 13.3337H8.33366Z" fill="currentColor"/>
	</symbol>
	<symbol id="ShoppingCart" width="20" height="20" viewBox="0 0 20 20" fill="none"
		xmlns="http://www.w3.org/2000/svg">
		<path d="M14.9997 5.00033H13.333C13.333 3.15866 11.8413 1.66699 9.99968 1.66699C8.15801 1.66699 6.66634 3.15866 6.66634 5.00033H4.99967C4.08301 5.00033 3.33301 5.75033 3.33301 6.66699V16.667C3.33301 17.5837 4.08301 18.3337 4.99967 18.3337H14.9997C15.9163 18.3337 16.6663 17.5837 16.6663 16.667V6.66699C16.6663 5.75033 15.9163 5.00033 14.9997 5.00033ZM9.99968 3.33366C10.9163 3.33366 11.6663 4.08366 11.6663 5.00033H8.33301C8.33301 4.08366 9.08301 3.33366 9.99968 3.33366ZM14.9997 16.667H4.99967V6.66699H6.66634V8.33366C6.66634 8.79199 7.04134 9.16699 7.49967 9.16699C7.95801 9.16699 8.33301 8.79199 8.33301 8.33366V6.66699H11.6663V8.33366C11.6663 8.79199 12.0413 9.16699 12.4997 9.16699C12.958 9.16699 13.333 8.79199 13.333 8.33366V6.66699H14.9997V16.667Z" fill="currentColor"/>
	</symbol>
	<symbol id="Bars3"
		xmlns="http://www.w3.org/2000/svg" viewBox="0 0 20 20" stroke="currentColor" fill="none">
		<path fill-rule="evenodd" clip-rule="evenodd" d="M2.5 5.00033C2.5 4.54009 2.8731 4.16699 3.33333 4.16699H16.6667C17.1269 4.16699 17.5 4.54009 17.5 5.00033C17.5 5.46056 17.1269 5.83366 16.6667 5.83366H3.33333C2.8731 5.83366 2.5 5.46056 2.5 5.00033ZM2.5 10.0003C2.5 9.54009 2.8731 9.16699 3.33333 9.16699H16.6667C17.1269 9.16699 17.5 9.54009 17.5 10.0003C17.5 10.4606 17.1269 10.8337 16.6667 10.8337H3.33333C2.8731 10.8337 2.5 10.4606 2.5 10.0003ZM2.5 15.0003C2.5 14.5401 2.8731 14.167 3.33333 14.167H16.6667C17.1269 14.167 17.5 14.5401 17.5 15.0003C17.5 15.4606 17.1269 15.8337 16.6667 15.8337H3.33333C2.8731 15.8337 2.5 15.4606 2.5 15.0003Z" fill="currentColor"/>
	</symbol>
	<symbol id="Heart"
		xmlns="http://www.w3.org/2000/svg" fill="none" viewBox="0 0 24 24" stroke="currentColor">
		<path stroke-linecap="round" stroke-linejoin="round" d="M21 8.25c0-2.485-2.099-4.5-4.688-4.5-1.935 0-3.597 1.126-4.312 2.733-.715-1.607-2.377-2.733-4.313-2.733C5.1 3.75 3 5.765 3 8.25c0 7.22 9 12 9 12s9-4.78 9-12z" />
	</symbol>
	<symbol id="MagnifyingGlass" width="20" height="20" viewBox="0 0 20 20" fill="none"
		xmlns="http://www.w3.org/2000/svg">
		<path fill-rule="evenodd" clip-rule="evenodd" d="M8.33366 3.33366C5.57223 3.33366 3.33366 5.57223 3.33366 8.33366C3.33366 11.0951 5.57223 13.3337 8.33366 13.3337C11.0951 13.3337 13.3337 11.0951 13.3337 8.33366C13.3337 5.57223 11.0951 3.33366 8.33366 3.33366ZM1.66699 8.33366C1.66699 4.65176 4.65176 1.66699 8.33366 1.66699C12.0156 1.66699 15.0003 4.65176 15.0003 8.33366C15.0003 9.87425 14.4778 11.2928 13.6002 12.4217L18.0896 16.9111C18.415 17.2365 18.415 17.7641 18.0896 18.0896C17.7641 18.415 17.2365 18.415 16.9111 18.0896L12.4217 13.6002C11.2928 14.4778 9.87425 15.0003 8.33366 15.0003C4.65176 15.0003 1.66699 12.0156 1.66699 8.33366Z" fill="currentColor"/>
	</symbol>
	<symbol id="XMark"
		xmlns="http://www.w3.org/2000/svg" fill="none" viewBox="0 0 24 24" stroke="currentColor">
		<path stroke-linecap="round" stroke-linejoin="round" d="M6 18L18 6M6 6l12 12" />
	</symbol>
	<symbol id="Plus"
		xmlns="http://www.w3.org/2000/svg" fill="none" viewBox="0 0 24 24" stroke="currentColor">
		<path stroke-linecap="round" stroke-linejoin="round" d="M12 4.5v15m7.5-7.5h-15" />
	</symbol>
	<symbol id="Minus"
		xmlns="http://www.w3.org/2000/svg" fill="none" viewBox="0 0 24 24" stroke="currentColor">
		<path stroke-linecap="round" stroke-linejoin="round" d="M19.5 12h-15" />
	</symbol>
	<symbol id="MapPin"
		xmlns="http://www.w3.org/2000/svg" fill="none" viewBox="0 0 24 24" stroke="currentColor">
		<path stroke-linecap="round" stroke-linejoin="round" d="M15 10.5a3 3 0 11-6 0 3 3 0 016 0z" />
		<path stroke-linecap="round" stroke-linejoin="round" d="M19.5 10.5c0 7.142-7.5 11.25-7.5 11.25S4.5 17.642 4.5 10.5a7.5 7.5 0 1115 0z" />
	</symbol>
	<symbol id="Phone"
		xmlns="http://www.w3.org/2000/svg" fill="none" viewBox="0 0 24 24" stroke="currentColor">
		<path stroke-linecap="round" stroke-linejoin="round" d="M2.25 6.75c0 8.284 6.716 15 15 15h2.25a2.25 2.25 0 002.25-2.25v-1.372c0-.516-.351-.966-.852-1.091l-4.423-1.106c-.44-.11-.902.055-1.173.417l-.97 1.293c-.282.376-.769.542-1.21.38a12.035 12.035 0 01-7.143-7.143c-.162-.441.004-.928.38-1.21l1.293-.97c.363-.271.527-.734.417-1.173L6.963 3.102a1.125 1.125 0 00-1.091-.852H4.5A2.25 2.25 0 002.25 4.5v2.25z" />
	</symbol>
	<symbol id="Elo"
		xmlns="http://www.w3.org/2000/svg" viewBox="0 0 40 14" stroke="currentColor" fill="none">
		<path d="M6.57655 3.09309C6.98496 2.95495 7.4234 2.88288 7.87985 2.88288C9.87385 2.88288 11.5375 4.3003 11.9159 6.18018L14.7387 5.6036C14.0901 2.40841 11.2672 0 7.87985 0C7.10508 0 6.36033 0.126126 5.66364 0.36036L6.57655 3.09309Z" fill="currentColor"/>
		<path d="M3.24323 12.2463L5.15314 10.0841C4.30029 9.32733 3.76576 8.22823 3.76576 6.997C3.76576 5.77178 4.30029 4.66667 5.15314 3.91592L3.24323 1.75977C1.79579 3.04505 0.882874 4.91292 0.882874 7.00301C0.882874 9.08709 1.79579 10.961 3.24323 12.2463Z" fill="currentColor"/>
		<path d="M11.9159 7.82617C11.5315 9.70605 9.87387 11.1175 7.87988 11.1175C7.42342 11.1175 6.98498 11.0454 6.57057 10.9073L5.65765 13.64C6.35435 13.8742 7.1051 14.0003 7.87988 14.0003C11.2673 14.0003 14.0901 11.5979 14.7387 8.40275L11.9159 7.82617Z" fill="currentColor"/>
		<path d="M24.1441 9.75962C23.6757 10.2161 23.045 10.4924 22.3484 10.4803C21.8679 10.4743 21.4234 10.3302 21.0511 10.0899L20.1141 11.5794C20.7568 11.9818 21.5075 12.2221 22.3243 12.2341C23.5075 12.2521 24.5886 11.7836 25.3754 11.0209L24.1441 9.75962ZM22.4505 3.68755C20.0961 3.65151 18.1502 5.5374 18.1141 7.89175C18.1021 8.77463 18.3544 9.60346 18.8048 10.2881L26.5405 6.97884C26.1081 5.12298 24.4505 3.72358 22.4505 3.68755ZM19.8859 8.22809C19.8739 8.13199 19.8679 8.02989 19.8679 7.92779C19.8919 6.5404 21.033 5.42929 22.4204 5.45331C23.1772 5.46532 23.8499 5.80767 24.3003 6.34821L19.8859 8.22809ZM28.973 1.76562V10.0119L30.4024 10.6065L29.7237 12.2341L28.3063 11.6455C27.988 11.5074 27.7718 11.2972 27.6096 11.0569C27.4535 10.8167 27.3333 10.4803 27.3333 10.0359V1.76562H28.973Z" fill="currentColor"/>
		<path d="M34.1321 5.57925C34.3844 5.49516 34.6487 5.45312 34.9309 5.45312C36.1502 5.45312 37.1592 6.31798 37.3934 7.46513L39.1171 7.11078C38.7207 5.15882 36.997 3.69336 34.9309 3.69336C34.4565 3.69336 34 3.77144 33.5796 3.90958L34.1321 5.57925ZM32.0961 11.1588L33.2613 9.84351C32.7387 9.38105 32.4144 8.70837 32.4144 7.95762C32.4144 7.20687 32.7448 6.5342 33.2613 6.07774L32.0961 4.76243C31.2132 5.54321 30.6547 6.69036 30.6547 7.96363C30.6547 9.2369 31.2132 10.378 32.0961 11.1588ZM37.3934 8.46813C37.1592 9.61528 36.1442 10.4801 34.9309 10.4801C34.6547 10.4801 34.3844 10.4321 34.1321 10.348L33.5736 12.0177C34 12.1618 34.4565 12.2399 34.9309 12.2399C36.997 12.2399 38.7207 10.7744 39.1171 8.82249L37.3934 8.46813Z" fill="currentColor"/>
	</symbol>
	<symbol id="Mastercard"
		xmlns="http://www.w3.org/2000/svg" viewBox="0 0 26 20" fill="none" stroke="currentColor">
		<g clip-path="url(#clip0_81_156)">
			<path d="M4.77191 19.9552V18.6263C4.77191 18.1167 4.46174 17.7846 3.95265 17.7846C3.68527 17.7846 3.39918 17.8734 3.19971 18.159C3.04463 17.9151 2.82538 17.7846 2.49116 17.7846C2.36689 17.7793 2.24323 17.8048 2.13124 17.8589C2.01926 17.913 1.92244 17.9941 1.84944 18.0948V17.8274H1.42859V19.9536H1.84944V18.737C1.84944 18.3627 2.07083 18.1836 2.381 18.1836C2.69116 18.1836 2.86816 18.383 2.86816 18.737V19.9552H3.28902V18.737C3.28902 18.3627 3.51041 18.1836 3.82057 18.1836C4.13073 18.1836 4.30773 18.383 4.30773 18.737V19.9552H4.77191ZM11.6821 17.8509H10.9067V17.2092H10.4869V17.8509H10.0441V18.2253H10.4869V19.2242C10.4869 19.7114 10.6639 19.9996 11.1954 19.9996C11.3968 19.9954 11.5941 19.9422 11.7703 19.8445L11.6371 19.4702C11.5177 19.5449 11.3791 19.5833 11.2382 19.5809C11.0168 19.5809 10.9061 19.4477 10.9061 19.2263V18.2082H11.6815V17.8536L11.6821 17.8509ZM15.6243 17.7846C15.5097 17.7821 15.3964 17.8093 15.2954 17.8637C15.1945 17.918 15.1093 17.9977 15.0484 18.0948V17.8274H14.6275V19.9536H15.0484V18.7595C15.0484 18.405 15.2254 18.1836 15.5136 18.1836C15.6109 18.1875 15.7074 18.2024 15.8013 18.2279L15.9345 17.829C15.8329 17.8034 15.729 17.7885 15.6243 17.7846ZM9.66656 18.006C9.44517 17.8509 9.13501 17.7846 8.80292 17.7846C8.27137 17.7846 7.93928 18.0285 7.93928 18.4493C7.93928 18.8039 8.18314 19.0028 8.64784 19.0697L8.86923 19.0916C9.11308 19.136 9.26816 19.2247 9.26816 19.3354C9.26816 19.4905 9.09116 19.6028 8.75854 19.6028C8.50456 19.608 8.2558 19.5303 8.04998 19.3814L7.82859 19.7135C8.13875 19.9349 8.51522 19.9809 8.73768 19.9809C9.358 19.9809 9.69009 19.6932 9.69009 19.2943C9.69009 18.9199 9.42271 18.7408 8.95907 18.6739L8.73768 18.652C8.53822 18.6301 8.36335 18.5632 8.36335 18.4306C8.36335 18.2755 8.54036 18.1632 8.78421 18.1632C9.05159 18.1632 9.31576 18.2739 9.44891 18.3402L9.66656 18.006ZM16.0896 18.8921C16.0896 19.5338 16.5104 19.9996 17.197 19.9996C17.5072 19.9996 17.7286 19.9333 17.95 19.7558L17.7286 19.4237C17.5718 19.5506 17.3768 19.6209 17.1751 19.6231C16.8008 19.6231 16.5104 19.3354 16.5104 18.9146C16.5104 18.4937 16.797 18.2082 17.1751 18.2082C17.3768 18.2104 17.5718 18.2807 17.7286 18.4076L17.95 18.0755C17.7286 17.8985 17.5072 17.8317 17.197 17.8317C16.5323 17.7873 16.0896 18.2525 16.0896 18.8948V18.8921ZM13.1216 17.7846C12.5013 17.7846 12.0805 18.2274 12.0805 18.8921C12.0805 19.5568 12.5232 19.9996 13.1655 19.9996C13.4779 20.0062 13.7831 19.9046 14.0291 19.7119L13.8077 19.4017C13.6298 19.5396 13.4125 19.6172 13.1874 19.6231C12.8997 19.6231 12.5896 19.4461 12.5457 19.0697H14.1184V18.8927C14.1184 18.2279 13.7195 17.7852 13.1216 17.7852V17.7846ZM13.0997 18.1836C13.4099 18.1836 13.6313 18.383 13.6532 18.7151H12.5019C12.5682 18.405 12.7692 18.1836 13.0997 18.1836ZM7.36335 18.8921V17.829H6.94249V18.0964C6.78741 17.8969 6.56816 17.7862 6.25586 17.7862C5.658 17.7862 5.21469 18.2515 5.21469 18.8937C5.21469 19.536 5.65747 20.0012 6.25586 20.0012C6.56602 20.0012 6.78741 19.8905 6.94249 19.691V19.9584H7.36335V18.8921ZM5.658 18.8921C5.658 18.4932 5.90185 18.1836 6.32271 18.1836C6.72164 18.1836 6.96442 18.4937 6.96442 18.8921C6.96442 19.313 6.69704 19.6007 6.32271 19.6007C5.90185 19.6226 5.658 19.2905 5.658 18.8921ZM22.0259 17.7846C21.9113 17.7821 21.798 17.8093 21.697 17.8637C21.5961 17.918 21.5109 17.9977 21.45 18.0948V17.8274H21.0291V19.9536H21.4495V18.7595C21.4495 18.405 21.6265 18.1836 21.9147 18.1836C22.012 18.1875 22.1085 18.2024 22.2024 18.2279L22.3355 17.829C22.234 17.8034 22.13 17.7885 22.0254 17.7846H22.0259ZM20.3869 18.8921V17.829H19.966V18.0964C19.8109 17.8969 19.5917 17.7862 19.2794 17.7862C18.6815 17.7862 18.2382 18.2515 18.2382 18.8937C18.2382 19.536 18.681 20.0012 19.2794 20.0012C19.5896 20.0012 19.8109 19.8905 19.966 19.691V19.9584H20.3869V18.8921ZM18.6815 18.8921C18.6815 18.4932 18.9254 18.1836 19.3462 18.1836C19.7452 18.1836 19.988 18.4937 19.988 18.8921C19.988 19.313 19.7206 19.6007 19.3462 19.6007C18.9254 19.6226 18.6815 19.2905 18.6815 18.8921ZM24.6618 18.8921V16.9873H24.2409V18.0948C24.0858 17.8953 23.8666 17.7846 23.5543 17.7846C22.9564 17.7846 22.5131 18.2499 22.5131 18.8921C22.5131 19.5344 22.9559 19.9996 23.5543 19.9996C23.8644 19.9996 24.0858 19.8889 24.2409 19.6894V19.9568H24.6618V18.8921ZM22.9564 18.8921C22.9564 18.4932 23.2003 18.1836 23.6211 18.1836C24.02 18.1836 24.2628 18.4937 24.2628 18.8921C24.2628 19.313 23.9954 19.6007 23.6211 19.6007C23.1997 19.6231 22.9559 19.291 22.9559 18.8921H22.9564Z" fill="currentColor"/>
			<path d="M9.95478 7.97327C9.95505 6.76731 10.2281 5.57704 10.7536 4.49159C11.279 3.40613 12.0433 2.45361 12.989 1.70535C11.8128 0.780601 10.4002 0.205442 8.9126 0.045623C7.42499 -0.114196 5.92242 0.147775 4.57667 0.801588C3.23091 1.4554 2.09627 2.47468 1.30244 3.74289C0.508619 5.01111 0.0876465 6.47709 0.0876465 7.97327C0.0876465 9.46944 0.508619 10.9354 1.30244 12.2036C2.09627 13.4719 3.23091 14.4911 4.57667 15.1449C5.92242 15.7988 7.42499 16.0607 8.9126 15.9009C10.4002 15.7411 11.8128 15.1659 12.989 14.2412C12.0433 13.4929 11.279 12.5404 10.7536 11.4549C10.2281 10.3695 9.95505 9.17922 9.95478 7.97327Z" fill="currentColor"/>
			<path d="M25.9019 7.97297C25.9029 9.46805 25.4832 10.9333 24.6907 12.201C23.8982 13.4688 22.7648 14.4879 21.4203 15.1418C20.0758 15.7957 18.5744 16.0579 17.0879 15.8986C15.6013 15.7393 14.1896 15.1648 13.0142 14.2409C13.9601 13.4928 14.7245 12.5403 15.25 11.4548C15.7755 10.3693 16.0485 9.17898 16.0485 7.97297C16.0485 6.76696 15.7755 5.5766 15.25 4.4911C14.7245 3.4056 13.9601 2.45312 13.0142 1.70506C14.1896 0.781104 15.6013 0.20662 17.0879 0.0473072C18.5744 -0.112005 20.0758 0.150287 21.4203 0.804186C22.7648 1.45808 23.8982 2.47719 24.6907 3.74493C25.4832 5.01268 25.9029 6.47789 25.9019 7.97297Z" fill="currentColor" fill-opacity="0.4"/>
			<path fill-rule="evenodd" clip-rule="evenodd" d="M13.0141 1.70508H12.989C12.0432 2.45333 11.279 3.40585 10.7536 4.49131C10.2281 5.57677 9.95504 6.76704 9.95477 7.97299C9.95504 9.17894 10.2281 10.3692 10.7536 11.4547C11.279 12.5401 12.0433 13.4926 12.989 14.2409H13.0141C13.0141 14.2409 13.0141 14.2409 13.0141 14.2409C13.9601 13.4928 14.7245 12.5404 15.25 11.4549C15.7755 10.3694 16.0484 9.17899 16.0484 7.97299C16.0484 6.76698 15.7755 5.57661 15.25 4.49111C14.7245 3.40561 13.9601 2.45314 13.0141 1.70508Z" fill="currentColor" fill-opacity="0.6"/>
		</g>
		<defs>
			<clipPath id="clip0_81_156">
				<rect width="25.8027" height="20" fill="white" transform="translate(0.0986328)"/>
			</clipPath>
		</defs>
	</symbol>
	<symbol id="Visa"
		xmlns="http://www.w3.org/2000/svg" viewBox="0 0 40 12" fill="none" stroke="currentColor">
		<path d="M14.2514 11.8628L16.2325 0.237305H19.4012L17.4187 11.8628H14.2514Z" fill="currentColor"/>
		<path d="M28.8667 0.488266C28.2389 0.252744 27.2552 0 26.0267 0C22.8956 0 20.6902 1.57674 20.6714 3.83653C20.6537 5.50698 22.2459 6.43886 23.4479 6.99494C24.6813 7.56486 25.0959 7.92824 25.09 8.437C25.0821 9.21631 24.105 9.57221 23.1942 9.57221C21.926 9.57221 21.2522 9.39601 20.2115 8.96208L19.8031 8.77728L19.3585 11.3797C20.0986 11.7043 21.4671 11.9854 22.8882 12C26.2191 12 28.3815 10.4413 28.4061 8.02807C28.4179 6.70556 27.5737 5.69921 25.7455 4.86948C24.638 4.33169 23.9597 3.97282 23.9669 3.42826C23.9669 2.94504 24.541 2.42833 25.7816 2.42833C26.8177 2.41223 27.5684 2.6382 28.1533 2.87372L28.4372 3.00787L28.8667 0.488266Z" fill="currentColor"/>
		<path d="M37.0208 0.237305H34.5723C33.8138 0.237305 33.2461 0.444322 32.913 1.20137L28.2071 11.8552H31.5345C31.5345 11.8552 32.0785 10.4228 32.2015 10.1082C32.5651 10.1082 35.7976 10.1132 36.2597 10.1132C36.3545 10.5202 36.6452 11.8552 36.6452 11.8552H39.5855L37.0208 0.237305ZM33.136 7.74409C33.3981 7.07428 34.3985 4.49428 34.3985 4.49428C34.3798 4.52522 34.6587 3.82121 34.8186 3.38473L35.0328 4.38703C35.0328 4.38703 35.6395 7.16205 35.7663 7.74391H33.136V7.74409Z" fill="currentColor"/>
		<path d="M0.45503 0.237305L0.414551 0.479138C1.66716 0.782359 2.78593 1.22123 3.76542 1.76717L6.57706 11.8441L9.92966 11.8404L14.9183 0.237305H11.5615L8.45929 8.16502L8.12885 6.55384C8.11337 6.50406 8.09654 6.4542 8.07932 6.40422L7.00087 1.21879C6.80912 0.482646 6.25282 0.262959 5.56461 0.237305H0.45503Z" fill="currentColor"/>
	</symbol>
	<symbol id="Pix" viewBox="0 0 512 512"
		xmlns="http://www.w3.org/2000/svg" fill="none" stroke="currentColor">
		<defs/>
		<g fill="currentColor" fill-rule="evenodd">
			<path d="M393.072 391.897c-20.082 0-38.969-7.81-53.176-22.02l-77.069-77.067c-5.375-5.375-14.773-5.395-20.17 0l-76.784 76.786c-14.209 14.207-33.095 22.019-53.179 22.019h-9.247l97.521 97.52c30.375 30.375 79.614 30.375 109.988 0l97.239-97.238h-15.123zm-105.049 74.327c-8.55 8.53-19.93 13.25-32.05 13.25h-.02c-12.12 0-23.522-4.721-32.05-13.25l-56.855-56.855c7.875-4.613 15.165-10.248 21.758-16.84l63.948-63.948 64.23 64.23c7.637 7.66 16.188 14.013 25.478 18.952l-54.439 54.46zM310.958 22.78c-30.374-30.374-79.613-30.374-109.988 0l-97.52 97.52h9.247c20.082 0 38.97 7.834 53.178 22.02l76.784 76.785c5.57 5.592 14.622 5.57 20.17 0l77.069-77.068c14.207-14.187 33.094-22.02 53.176-22.02h15.123l-97.239-97.237zm6.028 96.346l-64.23 64.23-63.97-63.97c-6.593-6.592-13.86-12.206-21.736-16.818l56.853-56.877c17.69-17.645 46.476-17.668 64.121 0l54.44 54.461c-9.292 4.961-17.842 11.315-25.479 18.974h.001z"/>
			<path d="M489.149 200.97l-58.379-58.377h-37.706c-13.838 0-27.394 5.635-37.185 15.426l-77.068 77.069c-7.202 7.18-16.623 10.77-26.067 10.77-9.443 0-18.885-3.59-26.066-10.77l-76.785-76.785c-9.792-9.814-23.346-15.427-37.207-15.427h-31.81L22.78 200.97c-30.374 30.375-30.374 79.614 0 109.988l58.095 58.074 31.81.021c13.86 0 27.416-5.635 37.208-15.426l76.784-76.764c13.925-13.947 38.208-13.924 52.133-.02l77.068 77.066c9.791 9.792 23.346 15.405 37.185 15.405h37.706l58.379-58.356c30.374-30.374 30.374-79.613 0-109.988zm-362.19 129.724c-3.763 3.786-8.942 5.917-14.273 5.917H94.302l-48.59-48.564c-17.689-17.69-17.689-46.476 0-64.143L94.3 175.296h18.385c5.331 0 10.51 2.154 14.295 5.918l74.74 74.74-74.761 74.74zm339.257-42.647l-48.848 48.87h-24.305c-5.309 0-10.508-2.155-14.251-5.92l-75.023-75.043 75.023-75.023c3.743-3.764 8.942-5.918 14.252-5.918h24.304l48.847 48.891c8.573 8.551 13.273 19.93 13.273 32.05 0 12.141-4.7 23.52-13.273 32.093z"/>
		</g>
	</symbol>
	<symbol id="Facebook"
		xmlns="http://www.w3.org/2000/svg" viewBox="0 0 24 24" stroke="currentColor" fill="none" stroke-linecap="round" stroke-linejoin="round">
		<path stroke="none" d="M0 0h24v24H0z" fill="none" />
		<path d="M7 10v4h3v7h4v-7h3l1 -4h-4v-2a1 1 0 0 1 1 -1h3v-4h-3a5 5 0 0 0 -5 5v2h-3" />
	</symbol>
	<symbol id="Instagram"
		xmlns="http://www.w3.org/2000/svg" viewBox="0 0 24 24" stroke="currentColor" fill="none" stroke-linecap="round" stroke-linejoin="round">
		<path stroke="none" d="M0 0h24v24H0z" fill="none" />
		<rect x="4" y="4" width="16" height="16" rx="4" />
		<circle cx="12" cy="12" r="3" />
		<line x1="16.5" y1="7.5" x2="16.5" y2="7.501" />
	</symbol>
	<symbol id="Tiktok"
		xmlns="http://www.w3.org/2000/svg" viewBox="0 0 24 24" stroke="currentColor" fill="none" stroke-linecap="round" stroke-linejoin="round">
		<path stroke="none" d="M0 0h24v24H0z" fill="none" />
		<path d="M9 12a4 4 0 1 0 4 4v-12a5 5 0 0 0 5 5" />
	</symbol>
	<symbol id="Truck"
		xmlns="http://www.w3.org/2000/svg" viewBox="0 0 36 28" stroke="currentColor" fill="none">
		<path d="M14 22.333C14 24.174 12.5077 25.6663 10.6667 25.6663C8.82576 25.6663 7.33337 24.174 7.33337 22.333M14 22.333C14 20.4921 12.5077 18.9997 10.6667 18.9997C8.82576 18.9997 7.33337 20.4921 7.33337 22.333M14 22.333H24M7.33337 22.333H4.00004V15.6663M30.6667 22.333C30.6667 24.174 29.1743 25.6663 27.3334 25.6663C25.4924 25.6663 24 24.174 24 22.333M30.6667 22.333C30.6667 20.4921 29.1743 18.9997 27.3334 18.9997C25.4924 18.9997 24 20.4921 24 22.333M30.6667 22.333H34V12.333M2.33337 2.33301H20.6667V22.333M34 12.333H20.6667M34 12.333L29 3.99967H20.6667M4.00004 8.99967H10.6667" stroke-linecap="round" stroke-linejoin="round"/>
	</symbol>
	<symbol id="Discount"
		xmlns="http://www.w3.org/2000/svg" viewBox="0 0 34 34" stroke="currentColor" fill="none">
		<path d="M12 21.9998L22 11.9998M13.6667 12.8332C13.6667 13.2934 13.2936 13.6665 12.8333 13.6665C12.3731 13.6665 12 13.2934 12 12.8332C12 12.3729 12.3731 11.9998 12.8333 11.9998C13.2936 11.9998 13.6667 12.3729 13.6667 12.8332ZM22 21.1665C22 21.6267 21.6269 21.9998 21.1667 21.9998C20.7064 21.9998 20.3333 21.6267 20.3333 21.1665C20.3333 20.7063 20.7064 20.3332 21.1667 20.3332C21.6269 20.3332 22 20.7063 22 21.1665ZM5.33334 8.99979C5.33334 8.02733 5.71965 7.0947 6.40728 6.40707C7.09491 5.71943 8.02755 5.33313 9.00001 5.33313H10.6667C11.6348 5.33257 12.5635 4.94913 13.25 4.26646L14.4167 3.09979C14.7574 2.75713 15.1625 2.4852 15.6087 2.29964C16.0549 2.11408 16.5334 2.01855 17.0167 2.01855C17.4999 2.01855 17.9784 2.11408 18.4246 2.29964C18.8708 2.4852 19.2759 2.75713 19.6167 3.09979L20.7833 4.26646C21.4699 4.94913 22.3985 5.33257 23.3667 5.33313H25.0333C26.0058 5.33313 26.9384 5.71943 27.6261 6.40707C28.3137 7.0947 28.7 8.02733 28.7 8.99979V10.6665C28.7006 11.6346 29.084 12.5633 29.7667 13.2498L30.9333 14.4165C31.276 14.7572 31.5479 15.1623 31.7335 15.6085C31.9191 16.0547 32.0146 16.5332 32.0146 17.0165C32.0146 17.4997 31.9191 17.9782 31.7335 18.4244C31.5479 18.8706 31.276 19.2757 30.9333 19.6165L29.7667 20.7831C29.084 21.4696 28.7006 22.3983 28.7 23.3665V25.0331C28.7 26.0056 28.3137 26.9382 27.6261 27.6259C26.9384 28.3135 26.0058 28.6998 25.0333 28.6998H23.3667C22.3985 28.7003 21.4699 29.0838 20.7833 29.7665L19.6167 30.9331C19.2759 31.2758 18.8708 31.5477 18.4246 31.7333C17.9784 31.9188 17.4999 32.0144 17.0167 32.0144C16.5334 32.0144 16.0549 31.9188 15.6087 31.7333C15.1625 31.5477 14.7574 31.2758 14.4167 30.9331L13.25 29.7665C12.5635 29.0838 11.6348 28.7003 10.6667 28.6998H9.00001C8.02755 28.6998 7.09491 28.3135 6.40728 27.6259C5.71965 26.9382 5.33334 26.0056 5.33334 25.0331V23.3665C5.33279 22.3983 4.94934 21.4696 4.26667 20.7831L3.10001 19.6165C2.75734 19.2757 2.48541 18.8706 2.29985 18.4244C2.11429 17.9782 2.01877 17.4997 2.01877 17.0165C2.01877 16.5332 2.11429 16.0547 2.29985 15.6085C2.48541 15.1623 2.75734 14.7572 3.10001 14.4165L4.26667 13.2498C4.94934 12.5633 5.33279 11.6346 5.33334 10.6665V8.99979Z" stroke-linecap="round" stroke-linejoin="round"/>
	</symbol>
	<symbol id="Return"
		xmlns="http://www.w3.org/2000/svg" viewBox="0 0 34 30" stroke="currentColor" fill="none">
		<path d="M32 6.66699H2M32 6.66699L27 11.667M32 6.66699L27 1.66699M7 28.3337L2 23.3337M2 23.3337L7 18.3337M2 23.3337H32" stroke-linecap="round" stroke-linejoin="round"/>
	</symbol>
	<symbol id="CreditCard"
		xmlns="http://www.w3.org/2000/svg" viewBox="0 0 34 28" stroke="currentColor" fill="none">
		<path d="M2 10.6663H32M8.66667 18.9997H8.68333M15.3333 18.9997H18.6667M7 2.33301H27C29.7614 2.33301 32 4.57158 32 7.33301V20.6663C32 23.4278 29.7614 25.6663 27 25.6663H7C4.23858 25.6663 2 23.4278 2 20.6663V7.33301C2 4.57158 4.23858 2.33301 7 2.33301Z" stroke-linecap="round" stroke-linejoin="round"/>
	</symbol>
	<symbol id="Deco"
		xmlns="http://www.w3.org/2000/svg" viewBox="0 0 58 20" stroke="currentColor" fill="none">
		<path d="M49.5359 16.9432C47.3666 16.9432 46.9948 14.8019 47.6797 12.7178C48.2221 11.0615 49.5066 9.31991 51.4201 9.31991C53.676 9.31991 53.9039 11.6038 53.247 13.6026C52.6753 15.3162 51.3908 16.9432 49.5359 16.9432ZM48.879 19.9973C52.6473 19.9973 56.0159 17.9133 57.3578 14.1449C58.7569 10.1767 57.1859 6.2085 52.0477 6.2085C47.9369 6.2085 44.7962 8.77758 43.5969 12.1755C42.2551 16.0011 43.7115 19.9973 48.879 19.9973ZM36.3747 19.9973C37.8591 19.9973 39.3729 19.6829 40.4282 19.2271C40.8 18.1998 40.828 17.2004 40.5428 16.201C39.8006 16.4862 38.7732 16.7727 37.7165 16.7727C34.861 16.7727 34.6051 14.6606 35.2048 12.8617C35.8617 10.9496 37.574 9.40786 40.287 9.40786C41.0012 9.40786 41.6861 9.52246 42.1138 9.77963C42.856 8.78025 43.2838 7.78086 43.3704 6.7535C42.7428 6.46834 41.6861 6.21117 40.3163 6.21117C35.863 6.21117 32.3505 8.80956 31.0953 12.406C29.896 15.8039 30.8101 20 36.3774 20L36.3747 19.9973ZM21.0442 11.8037C21.8143 10.0901 23.0136 9.09206 24.5846 9.09206C25.9838 9.09206 26.2116 9.86225 25.9838 10.4619C25.6413 11.2894 24.47 11.8037 21.0442 11.8037ZM22.2714 19.9973C23.7278 19.9973 25.7826 19.7122 27.4962 18.8554C27.7813 17.9133 27.7534 16.9712 27.4389 15.9998C26.3542 16.5421 24.8405 16.8566 23.4707 16.8566C21.4439 16.8566 20.3299 16.1997 20.3592 14.5447C25.8972 14.6873 28.7807 13.6879 29.7228 11.2334C30.6649 8.7496 29.0379 6.2085 25.1829 6.2085C21.0721 6.2085 18.046 9.14935 16.932 12.3181C15.7621 15.6867 16.5043 19.9973 22.2701 19.9973H22.2714ZM5.72293 19.9973C9.52059 19.9973 11.6806 18.2557 14.1924 12.9177C15.5622 9.97684 16.7335 7.09329 18.0753 4.23905L19.6743 4.7534C20.1021 4.89598 20.3313 4.6388 20.1314 4.23905L18.1899 0.270827C18.0473 -0.0143302 17.7329 -0.0436454 17.533 0.0429678L12.708 1.86984C12.3082 2.01242 12.3362 2.38419 12.7359 2.49745L14.1631 2.95451C12.9931 5.6102 11.5367 9.60641 10.3654 12.1182C9.05155 14.9165 8.39595 16.8859 6.16933 16.8859C3.9427 16.8859 3.57093 15.1443 4.51301 12.6605C5.59768 9.77697 7.42455 8.92016 9.5086 9.51979C10.0802 8.72028 10.508 7.52103 10.6785 6.43636C10.0789 6.26447 9.36469 6.2085 8.76639 6.2085C5.3978 6.2085 2.05719 7.95009 0.687373 11.6038C-1.0822 16.3143 0.554122 19.9973 5.7216 19.9973H5.72293Z" fill="currentColor"/>
	</symbol>
	<symbol id="Discord"
		xmlns="http://www.w3.org/2000/svg" viewBox="0 0 127.14 96.36" stroke="currentColor" fill="none">
		<g id="图层_2" data-name="图层 2">
			<g id="Discord_Logos" data-name="Discord Logos">
				<g id="Discord_Logo_-_Large_-_White" data-name="Discord Logo - Large - White">
					<path class="cls-1" d="M107.7,8.07A105.15,105.15,0,0,0,81.47,0a72.06,72.06,0,0,0-3.36,6.83A97.68,97.68,0,0,0,49,6.83,72.37,72.37,0,0,0,45.64,0,105.89,105.89,0,0,0,19.39,8.09C2.79,32.65-1.71,56.6.54,80.21h0A105.73,105.73,0,0,0,32.71,96.36,77.7,77.7,0,0,0,39.6,85.25a68.42,68.42,0,0,1-10.85-5.18c.91-.66,1.8-1.34,2.66-2a75.57,75.57,0,0,0,64.32,0c.87.71,1.76,1.39,2.66,2a68.68,68.68,0,0,1-10.87,5.19,77,77,0,0,0,6.89,11.1A105.25,105.25,0,0,0,126.6,80.22h0C129.24,52.84,122.09,29.11,107.7,8.07ZM42.45,65.69C36.18,65.69,31,60,31,53s5-12.74,11.43-12.74S54,46,53.89,53,48.84,65.69,42.45,65.69Zm42.24,0C78.41,65.69,73.25,60,73.25,53s5-12.74,11.44-12.74S96.23,46,96.12,53,91.08,65.69,84.69,65.69Z"/>
				</g>
			</g>
		</g>
	</symbol>
	<symbol id="FilterList"
		xmlns="http://www.w3.org/2000/svg" viewBox="0 0 16 16" fill="none">
		<path d="M6.66667 12H9.33333V10.6667H6.66667V12ZM2 4V5.33333H14V4H2ZM4 8.66667H12V7.33333H4V8.66667Z" fill="currentColor"/>
	</symbol>
	<symbol id="ChevronUp"
		xmlns="http://www.w3.org/2000/svg" viewBox="0 0 16 16" stroke="currentColor" fill="none">
		<path fill-rule="evenodd" clip-rule="evenodd" d="M7.52851 5.52827C7.78886 5.26792 8.21097 5.26792 8.47132 5.52827L12.4713 9.52827C12.7317 9.78862 12.7317 10.2107 12.4713 10.4711C12.211 10.7314 11.7889 10.7314 11.5285 10.4711L7.99992 6.94248L4.47132 10.4711C4.21097 10.7314 3.78886 10.7314 3.52851 10.4711C3.26816 10.2107 3.26816 9.78862 3.52851 9.52827L7.52851 5.52827Z" fill="black"/>
	</symbol>
	<symbol id="Trash" width="20" height="20" viewBox="0 0 20 20" fill="none"
		xmlns="http://www.w3.org/2000/svg">
		<path fill-rule="evenodd" clip-rule="evenodd" d="M7.15482 2.15483C7.46738 1.84227 7.89131 1.66667 8.33333 1.66667H11.6667C12.1087 1.66667 12.5326 1.84227 12.8452 2.15483C13.1577 2.46739 13.3333 2.89131 13.3333 3.33334V5H15.8236C15.8295 4.99994 15.8353 4.99994 15.8412 5H16.6667C17.1269 5 17.5 5.3731 17.5 5.83334C17.5 6.29357 17.1269 6.66667 16.6667 6.66667H16.6001L15.833 15.8715C15.8231 16.5207 15.5609 17.1413 15.1011 17.6011C14.6323 18.0699 13.9964 18.3333 13.3333 18.3333H6.66667C6.00362 18.3333 5.36774 18.0699 4.8989 17.6011C4.43906 17.1413 4.17685 16.5207 4.16696 15.8715L3.39989 6.66667H3.33333C2.8731 6.66667 2.5 6.29357 2.5 5.83334C2.5 5.3731 2.8731 5 3.33333 5H4.15878C4.16467 4.99994 4.17055 4.99994 4.17641 5H6.66667V3.33334C6.66667 2.89131 6.84226 2.46739 7.15482 2.15483ZM5.07233 6.66667L5.83045 15.7641C5.83237 15.7871 5.83333 15.8102 5.83333 15.8333C5.83333 16.0543 5.92113 16.2663 6.07741 16.4226C6.23369 16.5789 6.44565 16.6667 6.66667 16.6667H13.3333C13.5543 16.6667 13.7663 16.5789 13.9226 16.4226C14.0789 16.2663 14.1667 16.0543 14.1667 15.8333C14.1667 15.8102 14.1676 15.7871 14.1695 15.7641L14.9277 6.66667H5.07233ZM11.6667 5H8.33333V3.33334H11.6667V5ZM8.33333 8.33334C8.79357 8.33334 9.16667 8.70643 9.16667 9.16667V14.1667C9.16667 14.6269 8.79357 15 8.33333 15C7.8731 15 7.5 14.6269 7.5 14.1667V9.16667C7.5 8.70643 7.8731 8.33334 8.33333 8.33334ZM11.6667 8.33334C12.1269 8.33334 12.5 8.70643 12.5 9.16667V14.1667C12.5 14.6269 12.1269 15 11.6667 15C11.2064 15 10.8333 14.6269 10.8333 14.1667V9.16667C10.8333 8.70643 11.2064 8.33334 11.6667 8.33334Z" fill="currentColor"/>
	</symbol>
	<symbol id="WhatsApp"
		xmlns="http://www.w3.org/2000/svg" viewBox="0 0 18 18" fill="none">
		<path fill-rule="evenodd" clip-rule="evenodd" d="M13.333 3.94275C12.0977 2.88909 10.5203 2.32246 8.89688 2.34921C7.27345 2.37596 5.71558 2.99425 4.51564 4.08804C3.3157 5.18184 2.55617 6.67594 2.3796 8.28996C2.20302 9.90398 2.62153 11.527 3.5566 12.8543C3.72398 13.0919 3.75547 13.3996 3.63972 13.6661L2.88341 15.408L5.56246 14.9305C5.73665 14.8995 5.9162 14.9247 6.07512 15.0025C7.53336 15.7165 9.20204 15.8737 10.768 15.4448C12.334 15.0158 13.6896 14.0301 14.5804 12.6727C15.4712 11.3152 15.836 9.67933 15.6064 8.07201C15.3767 6.46468 14.5684 4.99641 13.333 3.94275ZM8.86942 0.682773C10.8987 0.649334 12.8704 1.35761 14.4146 2.67469C15.9588 3.99177 16.9692 5.8271 17.2563 7.83626C17.5433 9.84542 17.0873 11.8903 15.9738 13.5871C14.8603 15.2839 13.1658 16.516 11.2083 17.0522C9.34061 17.5638 7.35601 17.4083 5.59455 16.6177L1.64654 17.3213C1.34428 17.3752 1.03687 17.2585 0.846507 17.0176C0.656144 16.7767 0.613663 16.4506 0.735949 16.169L1.93091 13.417C0.947723 11.8367 0.519412 9.96793 0.722814 8.1087C0.943534 6.09118 1.89294 4.22355 3.39287 2.85631C4.8928 1.48907 6.84013 0.716212 8.86942 0.682773ZM6.03312 5.61685C6.26754 5.38243 6.58548 5.25073 6.917 5.25073C7.24852 5.25073 7.56646 5.38243 7.80088 5.61685C8.03531 5.85127 8.167 6.16921 8.167 6.50073V7.33407C8.167 7.66558 8.03531 7.98353 7.80088 8.21795C7.71659 8.30224 7.62149 8.37326 7.51885 8.42964C7.68255 8.89999 7.95113 9.33224 8.30998 9.69109C8.66883 10.0499 9.10107 10.3185 9.57143 10.4822C9.62781 10.3796 9.69882 10.2845 9.78312 10.2002C10.0175 9.96576 10.3355 9.83407 10.667 9.83407H11.5003C11.8319 9.83407 12.1498 9.96576 12.3842 10.2002C12.6186 10.4346 12.7503 10.7525 12.7503 11.0841C12.7503 11.4156 12.6186 11.7335 12.3842 11.9679C12.1498 12.2024 11.8319 12.3341 11.5003 12.3341H10.667C9.34092 12.3341 8.06915 11.8073 7.13147 10.8696C6.19378 9.93192 5.667 8.66015 5.667 7.33407V6.50073C5.667 6.16921 5.79869 5.85127 6.03312 5.61685Z" fill="currentColor"/>
	</symbol>
	<symbol id="logoVnda"
		xmlns="http://www.w3.org/2000/svg" viewBox="0 0 124 32" fill="none">
		<path xmlns="http://www.w3.org/2000/svg" d="M119.142 31.9963C120.533 31.9963 121.69 31.5438 122.613 30.6315C123.536 29.7229 124 28.5734 124 27.1794C124 25.7598 123.547 24.6067 122.639 23.7272C121.73 22.8478 120.565 22.4062 119.146 22.4062C117.755 22.4062 116.594 22.8478 115.671 23.7272C114.747 24.6067 114.284 25.7598 114.284 27.1794C114.284 28.5697 114.755 29.7229 115.689 30.6315C116.627 31.5438 117.777 31.9963 119.142 31.9963ZM99.3701 26.8838C98.4321 26.8838 97.6948 26.6721 97.1546 26.2452C96.6144 25.8182 96.3443 25.2526 96.3443 24.541C96.3443 22.9791 97.5232 22.1982 99.8811 22.1982H103.374V24.2016C103.06 25.0847 102.549 25.7489 101.841 26.205C101.133 26.6575 100.308 26.8838 99.3701 26.8838ZM99.6694 8.13776C97.8225 8.13776 95.9829 8.37131 94.1507 8.84206C92.3184 9.3128 90.7635 9.97332 89.486 10.8236L92.2125 16.3193C93.0082 15.6953 93.9754 15.2063 95.1106 14.8487C96.2457 14.4947 97.3699 14.3159 98.4758 14.3159C101.6 14.3159 103.235 15.5384 103.374 17.9797H98.7715C95.2785 17.9797 92.6943 18.5818 91.0153 19.7897C89.34 20.9976 88.5005 22.6945 88.5005 24.8804C88.5005 26.2415 88.8327 27.4567 89.5006 28.5223C90.1685 29.5879 91.154 30.4345 92.4607 31.0585C93.7674 31.6825 95.315 31.9963 97.1035 31.9963C100.483 31.9963 102.757 30.876 103.922 28.6318V31.6132H111.462V18.7898C111.462 15.1844 110.455 12.5059 108.437 10.7579C106.429 9.01357 103.502 8.13776 99.6694 8.13776ZM73.5466 25.5628C72.1268 25.5628 70.9625 25.0738 70.0536 24.0921C69.1448 23.1142 68.6922 21.7566 68.6922 20.0233C68.6922 18.3191 69.1448 16.9835 70.0536 16.0201C70.9625 15.053 72.1268 14.5713 73.5466 14.5713C74.9665 14.5713 76.1235 15.053 77.0214 16.0201C77.9156 16.9871 78.3646 18.3191 78.3646 20.0233C78.3646 21.7566 77.912 23.1142 77.0032 24.0921C76.0907 25.0738 74.9409 25.5628 73.5466 25.5628ZM78.2332 0.00364721V10.528C76.7258 8.93694 74.5978 8.14141 71.8421 8.14141C69.7397 8.14141 67.8235 8.6231 66.0898 9.59015C64.356 10.5572 62.9873 11.9402 61.9799 13.743C60.9689 15.5457 60.4652 17.6403 60.4652 20.0269C60.4652 22.4135 60.9689 24.5155 61.9799 26.3328C62.9873 28.1501 64.3597 29.5477 66.0898 30.5294C67.8199 31.511 69.7397 32 71.8421 32C74.8533 32 77.109 31.1059 78.6164 29.3142V31.6132H86.3288V0L78.2332 0.00364721ZM48.5335 8.13776C47.0553 8.13776 45.6938 8.3859 44.4419 8.8822C43.1899 9.37849 42.1132 10.0974 41.2044 11.0316V8.51727H33.492V31.6095H41.5876V20.4466C41.5876 18.6293 42.0074 17.2681 42.8432 16.3558C43.6827 15.4471 44.7959 14.991 46.1902 14.991C48.7196 14.991 49.9825 16.5674 49.9825 19.7204V31.6059H58.0781V18.3994C58.0781 14.9618 57.2058 12.3927 55.4575 10.6886C53.7128 8.99167 51.4024 8.13776 48.5335 8.13776ZM25.4804 1.79177L17.2132 21.2202L9.11759 1.79177H0L12.742 31.6132H21.053L33.8351 1.79177H25.4804Z" fill="#312F4F"/>
	</symbol>
	<symbol id="IconCart" viewBox="0 0 24.31 23.25">
		<g transform="translate(0.5 0.5)">
			<path stroke="currentColor" style="fill:none;stroke-linecap:round;stroke-linejoin:round;" d="M14.119,31.06A1.06,1.06,0,1,1,13.06,30,1.06,1.06,0,0,1,14.119,31.06Z" transform="translate(-4.583 -9.869)"></path>
			<path stroke="currentColor" style="fill:none;stroke-linecap:round;stroke-linejoin:round;" d="M30.619,31.06A1.06,1.06,0,1,1,29.56,30,1.06,1.06,0,0,1,30.619,31.06Z" transform="translate(-9.429 -9.869)"></path>
			<path stroke="currentColor" style="fill:none;stroke-linecap:round;stroke-linejoin:round;" d="M1.5,1.5H5.738l2.84,14.187A2.119,2.119,0,0,0,10.7,17.393H21a2.119,2.119,0,0,0,2.119-1.706L24.81,6.8H6.8" transform="translate(-1.5 -1.5)"></path>
		</g>
	</symbol>
	<symbol id="PigMoney" viewBox="0 0 49 40"
		xmlns="http://www.w3.org/2000/svg">
		<g clip-path="url(#clip0_674_18008)">
			<path fill-rule="evenodd" clip-rule="evenodd" d="M20.0404 4.13652C19.328 3.94539 18.5767 3.95493 17.8695 4.1641C17.1622 4.37328 16.5265 4.77393 16.0327 5.32177C15.5389 5.86962 15.2062 6.54333 15.0714 7.26845C14.9365 7.99356 15.0048 8.74184 15.2686 9.43058C15.36 9.66896 15.4735 9.897 15.6071 10.1119C17.8222 8.73452 20.3824 8.00101 22.9995 8.001H23.0037C23.0038 7.72253 22.9748 7.44359 22.9164 7.16876C22.7632 6.44731 22.4135 5.78227 21.9059 5.24715C21.3984 4.71202 20.7527 4.32765 20.0404 4.13652ZM28.0033 8.00097C27.0033 8.00097 27.0033 8.00097 26.829 6.33778C26.5226 4.89487 25.8232 3.56479 24.808 2.49454C23.7929 1.42429 22.5017 0.655554 21.077 0.273289C19.6523 -0.108977 18.1496 -0.0898834 16.7351 0.328459C15.3205 0.746801 14.0492 1.5481 13.0616 2.6438C12.074 3.73949 11.4086 5.08692 11.1389 6.53714C10.8692 7.98737 11.0058 9.48393 11.5334 10.8614C11.7856 11.5197 12.1224 12.1385 12.533 12.7033C11.4155 13.9613 10.5278 15.4175 9.92101 17.0067C8.90953 19.6556 8.72628 22.5493 9.39551 25.3047C9.99177 27.7597 11.2397 30.0018 12.9998 31.7982V35.0002C12.9998 36.3262 13.5266 37.5979 14.4642 38.5356C15.4019 39.4732 16.6736 40 17.9997 40C19.3257 40 20.5974 39.4732 21.5351 38.5356C22.2335 37.8371 22.704 36.9533 22.8986 35.9998C22.9322 36 22.9658 36.0001 22.9995 36.0001H30.9985M16.6041 14.3134C15.2886 15.4079 14.2718 16.8253 13.6577 18.4335C12.9353 20.3256 12.8044 22.3925 13.2824 24.3607C13.7604 26.3288 14.8248 28.1054 16.3347 29.4553C16.7784 29.852 17.0223 30.4256 17.0003 31.0203L16.9997 31.0373V35.0002C16.9997 35.2654 17.105 35.5197 17.2926 35.7072C17.4801 35.8948 17.7344 36.0001 17.9997 36.0001C18.2649 36.0001 18.5192 35.8948 18.7067 35.7072C18.8943 35.5197 18.9996 35.2654 18.9996 35.0002V33.8342C18.9996 33.246 19.2585 32.6877 19.7075 32.3077C20.1564 31.9277 20.7499 31.7646 21.33 31.8617C21.8814 31.9541 22.4396 32.0004 22.9988 32.0002H30.9992C31.5584 32.0004 32.1173 31.9541 32.6688 31.8617C33.2489 31.7646 33.8423 31.9277 34.2913 32.3077C34.7402 32.6877 34.9991 33.246 34.9991 33.8342V35.0002C34.9991 35.2654 35.1045 35.5197 35.292 35.7072C35.4795 35.8948 35.7339 36.0001 35.9991 36.0001C36.2643 36.0001 36.5186 35.8948 36.7062 35.7072C36.8937 35.5197 36.9991 35.2654 36.9991 35.0002V30.9463C36.9991 30.3778 37.241 29.8362 37.6643 29.4569C38.9183 28.3331 39.8699 26.9154 40.4294 25.3336C40.712 24.5346 41.4674 24.0005 42.3149 24.0005H44.9988V20.0006H42.3169C41.4702 20.0006 40.7152 19.4674 40.4321 18.6695C39.6347 16.4222 38.0634 14.5322 35.9994 13.3379C35.3816 12.9804 35.0011 12.3207 35.0011 11.6069V7.73671L29.1087 11.665C28.7802 11.884 28.3942 12.0009 27.9993 12.0009H24.7599C24.6933 12.0043 24.6261 12.0043 24.5588 12.0009H22.9995C20.9741 12.0009 18.9965 12.6159 17.3284 13.7646C17.0908 13.9282 16.8611 14.1015 16.6398 14.2839C16.628 14.2939 16.6161 14.3037 16.6041 14.3134ZM28.0033 8.00097L35.8897 2.33708C36.2182 2.11806 36.6042 2.00119 36.9991 2.00119H37.0011C38.1056 2.00119 39.001 2.89659 39.001 4.00113V10.5111C41.0025 11.9066 42.6049 13.7996 43.651 16.0007H44.9988C46.0596 16.0007 47.077 16.4222 47.8271 17.1723C48.5773 17.9224 48.9987 18.9398 48.9987 20.0006V24.0005C48.9987 25.0613 48.5773 26.0787 47.8271 26.8288C47.077 27.579 46.0596 28.0004 44.9988 28.0004H43.6499C42.9833 29.4042 42.087 30.6878 40.9989 31.7992V35.0002C40.9989 36.3262 40.4722 37.5979 39.5345 38.5356C38.5969 39.4732 37.3251 40 35.9991 40C34.673 40 33.4013 39.4732 32.4637 38.5356C31.7652 37.8371 31.2948 36.9533 31.1002 35.9998C31.0665 36 31.0322 36.0001 30.9985 36.0001M35.0011 16.0007C36.1057 16.0007 37.0011 16.8962 37.0011 18.0007V18.0207C37.0011 19.1252 36.1057 20.0206 35.0011 20.0206C33.8966 20.0206 33.0012 19.1252 33.0012 18.0207V18.0007C33.0012 16.8962 33.8966 16.0007 35.0011 16.0007Z" fill="#02F67C"/>
			<path d="M11.8039 20H11.5784V19C11.5784 17.715 10.3824 17 9.35294 17C8.32352 17 7.12745 17.715 7.12745 19V20H6.90196C5.39504 20 3.91876 20.4868 2.80353 21.3968C1.68268 22.3114 1 23.6007 1 25C1 26.3993 1.68268 27.6886 2.80353 28.6032C3.91876 29.5132 5.39504 30 6.90196 30H11.8039C12.2471 30 12.6411 30.1454 12.9048 30.3606C13.1629 30.5712 13.2549 30.808 13.2549 31C13.2549 31.192 13.1629 31.4288 12.9048 31.6394C12.6411 31.8546 12.2471 32 11.8039 32H6.95483C6.63843 31.9833 6.34818 31.8927 6.11895 31.7541C5.88164 31.6107 5.73729 31.4339 5.66697 31.2711C5.19585 30.1803 3.9088 29.8084 2.90939 30.0958C1.87112 30.3944 0.986862 31.4962 1.5193 32.7289C1.93684 33.6956 2.68344 34.5034 3.62548 35.0728C4.56699 35.6419 5.67738 35.9584 6.81381 35.9984C6.84326 35.9995 6.87265 36 6.90196 36H7.12745V37C7.12745 38.285 8.32352 39 9.35294 39C10.3824 39 11.5784 38.285 11.5784 37V36H11.8039C13.3108 36 14.7871 35.5132 15.9024 34.6032C17.0232 33.6886 17.7059 32.3993 17.7059 31C17.7059 29.6007 17.0232 28.3114 15.9024 27.3968C14.7871 26.4868 13.3108 26 11.8039 26H6.90196C6.45876 26 6.06479 25.8546 5.80108 25.6394C5.54299 25.4288 5.45098 25.192 5.45098 25C5.45098 24.808 5.54299 24.5712 5.80108 24.3606C6.06479 24.1454 6.45876 24 6.90196 24H11.7511C12.0675 24.0167 12.3577 24.1073 12.5869 24.2459C12.8242 24.3893 12.9686 24.5661 13.0389 24.7289C13.51 25.8197 14.7971 26.1916 15.7965 25.9042C16.8348 25.6056 17.719 24.5038 17.1866 23.2711C16.769 22.3044 16.0224 21.4966 15.0804 20.9272C14.1389 20.3581 13.0285 20.0416 11.892 20.0016C11.8626 20.0005 11.8333 20 11.8039 20Z" fill="white" stroke="#0A2121" stroke-width="2" stroke-linecap="round" stroke-linejoin="round"/>
		</g>
		<defs>
			<clipPath id="clip0_674_18008">
				<rect width="49" height="40" fill="white"/>
			</clipPath>
		</defs>
	</symbol>
	<symbol id="FastClock" viewBox="0 0 53 40" fill="none"
		xmlns="http://www.w3.org/2000/svg">
		<g clip-path="url(#clip0_674_17998)">
			<path fill-rule="evenodd" clip-rule="evenodd" d="M33 4C24.1634 4 17 11.1634 17 20C17 28.8366 24.1634 36 33 36C41.8366 36 49 28.8366 49 20C49 11.1634 41.8366 4 33 4ZM13 20C13 8.9543 21.9543 0 33 0C44.0457 0 53 8.9543 53 20C53 31.0457 44.0457 40 33 40C21.9543 40 13 31.0457 13 20ZM33 8C34.1046 8 35 8.89543 35 10V18.9296L40.1094 22.3359C41.0285 22.9486 41.2768 24.1903 40.6641 25.1094C40.0514 26.0285 38.8097 26.2768 37.8906 25.6641L31.8906 21.6641C31.3342 21.2932 31 20.6687 31 20V10C31 8.89543 31.8954 8 33 8Z" fill="#02F67C"/>
		</g>
		<path d="M9.33333 9C8.04467 9 7 10.0447 7 11.3333C7 12.622 8.04467 13.6667 9.33333 13.6667H18.3333C19.622 13.6667 20.6667 12.622 20.6667 11.3333C20.6667 10.0447 19.622 9 18.3333 9H9.33333Z" fill="white" stroke="#0A2121" stroke-width="2" stroke-linecap="round" stroke-linejoin="round"/>
		<path d="M3.33333 19C2.04467 19 1 20.0447 1 21.3333C1 22.622 2.04467 23.6667 3.33333 23.6667H12.3333C13.622 23.6667 14.6667 22.622 14.6667 21.3333C14.6667 20.0447 13.622 19 12.3333 19H3.33333Z" fill="white" stroke="#0A2121" stroke-width="2" stroke-linecap="round" stroke-linejoin="round"/>
		<path d="M8.33333 28C7.04467 28 6 29.0447 6 30.3333C6 31.622 7.04467 32.6667 8.33333 32.6667H17.3333C18.622 32.6667 19.6667 31.622 19.6667 30.3333C19.6667 29.0447 18.622 28 17.3333 28H8.33333Z" fill="white" stroke="#0A2121" stroke-width="2" stroke-linecap="round" stroke-linejoin="round"/>
		<defs>
			<clipPath id="clip0_674_17998">
				<rect width="40" height="40" fill="white" transform="translate(13)"/>
			</clipPath>
		</defs>
	</symbol>
	<symbol id="FastPagespeed" viewBox="0 0 54 40" fill="none"
		xmlns="http://www.w3.org/2000/svg">
		<path d="M28.2358 13.274C29.1358 13.274 29.9158 13.472 30.5758 13.868C31.2478 14.252 31.7638 14.774 32.1238 15.434C32.4958 16.094 32.6818 16.838 32.6818 17.666C32.6818 18.29 32.5798 18.908 32.3758 19.52C32.1718 20.132 31.8298 20.762 31.3498 21.41L28.0018 26H26.4538L30.1438 20.978L31.9618 18.962C31.7218 19.826 31.2598 20.522 30.5758 21.05C29.8918 21.578 29.0578 21.842 28.0738 21.842C27.2218 21.842 26.4778 21.668 25.8418 21.32C25.2178 20.96 24.7258 20.462 24.3658 19.826C24.0178 19.19 23.8438 18.458 23.8438 17.63C23.8438 16.778 24.0298 16.028 24.4018 15.38C24.7738 14.72 25.2898 14.204 25.9498 13.832C26.6098 13.46 27.3718 13.274 28.2358 13.274ZM31.2238 17.648C31.2238 17.012 31.1038 16.466 30.8638 16.01C30.6358 15.542 30.2998 15.182 29.8558 14.93C29.4118 14.678 28.8718 14.552 28.2358 14.552C27.5998 14.552 27.0598 14.678 26.6158 14.93C26.1838 15.182 25.8538 15.542 25.6258 16.01C25.4098 16.466 25.3018 17.006 25.3018 17.63C25.3018 18.254 25.4098 18.788 25.6258 19.232C25.8538 19.664 26.1838 19.994 26.6158 20.222C27.0598 20.45 27.5998 20.564 28.2358 20.564C28.8718 20.564 29.4118 20.45 29.8558 20.222C30.2998 19.994 30.6358 19.664 30.8638 19.232C31.1038 18.8 31.2238 18.272 31.2238 17.648ZM37.3372 19.376C36.6172 19.136 36.0712 18.782 35.6992 18.314C35.3272 17.834 35.1412 17.246 35.1412 16.55C35.1412 15.938 35.3032 15.386 35.6272 14.894C35.9512 14.402 36.4252 14.012 37.0492 13.724C37.6852 13.424 38.4652 13.274 39.3892 13.274C40.3132 13.274 41.0872 13.424 41.7112 13.724C42.3472 14.012 42.8272 14.408 43.1512 14.912C43.4752 15.404 43.6372 15.95 43.6372 16.55C43.6372 17.234 43.4452 17.816 43.0612 18.296C42.6772 18.776 42.1372 19.136 41.4412 19.376C42.2212 19.58 42.8392 19.946 43.2952 20.474C43.7512 21.002 43.9792 21.662 43.9792 22.454C43.9792 23.198 43.7872 23.846 43.4032 24.398C43.0192 24.95 42.4852 25.376 41.8012 25.676C41.1172 25.976 40.3132 26.126 39.3892 26.126C38.4772 26.126 37.6732 25.976 36.9772 25.676C36.2932 25.376 35.7592 24.95 35.3752 24.398C34.9912 23.846 34.7992 23.198 34.7992 22.454C34.7992 21.65 35.0272 20.99 35.4832 20.474C35.9512 19.946 36.5692 19.58 37.3372 19.376ZM42.1792 16.712C42.1792 15.968 41.9272 15.422 41.4232 15.074C40.9312 14.726 40.2532 14.552 39.3892 14.552C38.5372 14.552 37.8592 14.726 37.3552 15.074C36.8512 15.41 36.5992 15.962 36.5992 16.73C36.5992 17.414 36.8512 17.936 37.3552 18.296C37.8592 18.656 38.5372 18.836 39.3892 18.836C40.2412 18.836 40.9192 18.656 41.4232 18.296C41.9272 17.936 42.1792 17.408 42.1792 16.712ZM39.3892 20.042C38.8012 20.042 38.2672 20.12 37.7872 20.276C37.3192 20.432 36.9472 20.684 36.6712 21.032C36.3952 21.368 36.2572 21.83 36.2572 22.418C36.2572 23.198 36.5332 23.798 37.0852 24.218C37.6372 24.638 38.4052 24.848 39.3892 24.848C40.3612 24.848 41.1232 24.638 41.6752 24.218C42.2392 23.786 42.5212 23.186 42.5212 22.418C42.5212 21.842 42.3832 21.38 42.1072 21.032C41.8312 20.684 41.4592 20.432 40.9912 20.276C40.5232 20.12 39.9892 20.042 39.3892 20.042Z" fill="#02F67C"/>
		<path d="M34.5 2C39.0003 2 43.3276 3.73369 46.583 6.84092C49.8383 9.94815 51.7716 14.1901 51.981 18.6854C52.1905 23.1808 50.6601 27.5841 47.7077 30.9806C44.7554 34.3771 40.6081 36.5057 36.1273 36.9241C31.6466 37.3426 27.1768 36.0188 23.6466 33.2278C20.1164 30.4367 17.7971 26.393 17.1705 21.9365C16.5439 17.4801 17.6582 12.9536 20.282 9.29726C22.9057 5.64096 27.1316 3.38158 29.8947 2.92105" stroke="#02F67C" stroke-width="3.5" stroke-linecap="round"/>
		<path d="M13 17.0001C13 16.1338 12.4423 15.366 11.6185 15.0981C10.7947 14.8302 9.89205 15.1231 9.38253 15.8237L1.38253 26.8237C0.940081 27.4321 0.87642 28.2373 1.21777 28.9076C1.55913 29.578 2.24775 30.0001 3 30.0001H7.00001V35.0001C7.00001 35.8663 7.5577 36.6341 8.38152 36.902C9.20533 37.1699 10.108 36.877 10.6175 36.1764L18.6175 25.1764C19.0599 24.568 19.1236 23.7629 18.7822 23.0925C18.4409 22.4222 17.7523 22.0001 17 22.0001H13V17.0001ZM9.00001 26.0001H6.92755L9.00001 23.1504V24.0001C9.00001 25.1046 9.89544 26.0001 11 26.0001H13.0725L11 28.8497V28.0001C11 26.8955 10.1046 26.0001 9.00001 26.0001Z" fill="#F3FFF9" stroke="#0A2121" stroke-width="2" stroke-linecap="round" stroke-linejoin="round"/>
	</symbol>
	<symbol id="Check" viewBox="0 0 20 20" fill="none"
		xmlns="http://www.w3.org/2000/svg">
		<path fill-rule="evenodd" clip-rule="evenodd" d="M17.2566 5.24408C17.582 5.56951 17.582 6.09715 17.2566 6.42259L8.92324 14.7559C8.5978 15.0814 8.07017 15.0814 7.74473 14.7559L3.57806 10.5893C3.25263 10.2638 3.25263 9.73618 3.57806 9.41074C3.9035 9.08531 4.43114 9.08531 4.75657 9.41074L8.33398 12.9882L16.0781 5.24408C16.4035 4.91864 16.9311 4.91864 17.2566 5.24408Z" fill="#F4F6F5"/>
	</symbol>
	<symbol id="WhiteArrow" viewBox="0 0 13 13" fill="none"
		xmlns="http://www.w3.org/2000/svg">
		<path fill-rule="evenodd" clip-rule="evenodd" d="M6.73122 1.19013C7.04039 0.880961 7.54164 0.880961 7.85081 1.19013L12.6008 5.94013C12.91 6.24929 12.91 6.75055 12.6008 7.05971L7.85081 11.8097C7.54164 12.1189 7.04039 12.1189 6.73122 11.8097C6.42206 11.5005 6.42206 10.9993 6.73122 10.6901L10.1298 7.29159H0.957682C0.520457 7.29159 0.166016 6.93714 0.166016 6.49992C0.166016 6.06269 0.520457 5.70825 0.957682 5.70825H10.1298L6.73122 2.30971C6.42206 2.00055 6.42206 1.49929 6.73122 1.19013Z" fill="white"/>
	</symbol>
	<symbol id="GreenArrow" viewBox="0 0 13 13" fill="none"
		xmlns="http://www.w3.org/2000/svg">
		<path fill-rule="evenodd" clip-rule="evenodd" d="M6.73122 1.19013C7.04039 0.880961 7.54164 0.880961 7.85081 1.19013L12.6008 5.94013C12.91 6.24929 12.91 6.75055 12.6008 7.05971L7.85081 11.8097C7.54164 12.1189 7.04039 12.1189 6.73122 11.8097C6.42206 11.5005 6.42206 10.9993 6.73122 10.6901L10.1298 7.29159H0.957682C0.520457 7.29159 0.166016 6.93714 0.166016 6.49992C0.166016 6.06269 0.520457 5.70825 0.957682 5.70825H10.1298L6.73122 2.30971C6.42206 2.00055 6.42206 1.49929 6.73122 1.19013Z" fill="#0A2121"/>
	</symbol>
	<symbol id="Sale" viewBox="0 0 45 41" fill="none"
		xmlns="http://www.w3.org/2000/svg">
		<g clip-path="url(#clip0_456_6862)">
			<path fill-rule="evenodd" clip-rule="evenodd" d="M20 -0.00012207C21.1046 -0.00012207 22 0.895308 22 1.99988V5.99988H24C24.0288 5.99988 24.0575 6.0005 24.0863 6.00174C25.6816 6.07062 27.2199 6.61536 28.503 7.56584C29.7861 8.51631 30.7555 9.82904 31.2863 11.3351C31.6534 12.3768 31.1066 13.519 30.0648 13.8862C29.023 14.2533 27.8809 13.7064 27.5137 12.6647C27.2483 11.9117 26.7637 11.2553 26.1221 10.7801C25.4909 10.3125 24.7363 10.0413 23.9525 9.99988H16C14.9391 9.99988 13.9217 10.4213 13.1716 11.1715C12.4214 11.9216 12 12.939 12 13.9999C12 15.0607 12.4214 16.0782 13.1716 16.8283C13.9217 17.5785 14.9391 17.9999 16 17.9999H24C26.1217 17.9999 28.1566 18.8427 29.6569 20.343C31.1571 21.8433 32 23.8781 32 25.9999C32 28.1216 31.1571 30.1564 29.6569 31.6567C28.1566 33.157 26.1217 33.9999 24 33.9999H22V37.9999C22 39.1044 21.1046 39.9999 20 39.9999C18.8954 39.9999 18 39.1044 18 37.9999V33.9999H16C15.9712 33.9999 15.9425 33.9993 15.9137 33.998C14.3184 33.9291 12.7802 33.3844 11.497 32.4339C10.2139 31.4834 9.24452 30.1707 8.71373 28.6647C8.34656 27.6229 8.89343 26.4808 9.9352 26.1136C10.977 25.7464 12.1191 26.2933 12.4863 27.3351C12.7517 28.0881 13.2363 28.7445 13.8779 29.2197C14.5091 29.6872 15.2637 29.9584 16.0475 29.9999H24C25.0609 29.9999 26.0783 29.5785 26.8284 28.8283C27.5786 28.0782 28 27.0607 28 25.9999C28 24.939 27.5786 23.9216 26.8284 23.1714C26.0783 22.4213 25.0609 21.9999 24 21.9999H16C13.8783 21.9999 11.8434 21.157 10.3431 19.6567C8.84285 18.1564 8 16.1216 8 13.9999C8 11.8781 8.84286 9.84331 10.3431 8.34302C11.8434 6.84273 13.8783 5.99988 16 5.99988H18V1.99988C18 0.895308 18.8954 -0.00012207 20 -0.00012207Z" fill="#02F67C"/>
		</g>
		<path d="M23.5565 25.6102C22.7429 24.7966 21.4238 24.7966 20.6102 25.6102C19.7966 26.4238 19.7966 27.7429 20.6102 28.5565L27.1102 35.0565C27.9238 35.8701 29.2429 35.8701 30.0565 35.0565L32.9167 32.1963L36.5537 35.8333H34C32.8494 35.8333 31.9167 36.7661 31.9167 37.9167C31.9167 39.0673 32.8494 40 34 40H41.5833C42.7339 40 43.6667 39.0673 43.6667 37.9167V30.3333C43.6667 29.1827 42.7339 28.25 41.5833 28.25C40.4327 28.25 39.5 29.1827 39.5 30.3333V32.8871L34.3898 27.7769C33.5762 26.9633 32.2571 26.9633 31.4435 27.7769L28.5833 30.6371L23.5565 25.6102Z" fill="white" stroke="#0A2121" stroke-width="2" stroke-linecap="round" stroke-linejoin="round"/>
		<defs>
			<clipPath id="clip0_456_6862">
				<rect width="40" height="40" fill="white"/>
			</clipPath>
		</defs>
	</symbol>
	<symbol id="Book" viewBox="0 0 34 28" fill="none"
		xmlns="http://www.w3.org/2000/svg">
		<path fill-rule="evenodd" clip-rule="evenodd" d="M3.66536 5.0013V23.0451C5.52428 22.3505 7.49946 21.9909 9.4987 21.9909C11.4979 21.9909 13.4731 22.3505 15.332 23.0451V5.0013C13.5183 4.11884 11.5239 3.65755 9.4987 3.65755C7.47347 3.65755 5.47912 4.11884 3.66536 5.0013ZM18.6654 5.0013V23.0451C20.5243 22.3505 22.4995 21.9909 24.4987 21.9909C26.4979 21.9909 28.4731 22.3505 30.332 23.0451V5.0013C28.5183 4.11884 26.5239 3.65755 24.4987 3.65755C22.4735 3.65755 20.4791 4.11884 18.6654 5.0013ZM16.9987 2.10707C14.6763 0.936809 12.108 0.324219 9.4987 0.324219C6.57309 0.324219 3.69902 1.09432 1.16536 2.55713C0.649696 2.85485 0.332031 3.40506 0.332031 4.0005V25.6672C0.332031 26.2626 0.649696 26.8128 1.16536 27.1105C1.68103 27.4083 2.31636 27.4083 2.83203 27.1105C4.85895 25.9403 7.15821 25.3242 9.4987 25.3242C11.8392 25.3242 14.1384 25.9403 16.1654 27.1105C16.681 27.4083 17.3164 27.4083 17.832 27.1105C19.859 25.9403 22.1582 25.3242 24.4987 25.3242C26.8392 25.3242 29.1384 25.9403 31.1654 27.1105C31.681 27.4083 32.3164 27.4083 32.832 27.1105C33.3477 26.8128 33.6654 26.2626 33.6654 25.6672V4.0005C33.6654 3.40506 33.3477 2.85485 32.832 2.55713C30.2984 1.09432 27.4243 0.324219 24.4987 0.324219C21.8894 0.324219 19.3211 0.936809 16.9987 2.10707Z" fill="black"/>
	</symbol>
	<symbol id="Bag" viewBox="0 0 34 32" fill="none"
		xmlns="http://www.w3.org/2000/svg">
		<path fill-rule="evenodd" clip-rule="evenodd" d="M13.6657 3.66683C13.2237 3.66683 12.7998 3.84242 12.4872 4.15498C12.1747 4.46755 11.9991 4.89147 11.9991 5.3335V7.00016H21.9991V5.3335C21.9991 4.89147 21.8235 4.46755 21.5109 4.15498C21.1983 3.84242 20.7744 3.66683 20.3324 3.66683H13.6657ZM25.3324 7.00016V5.3335C25.3324 4.00741 24.8056 2.73564 23.8679 1.79796C22.9302 0.86028 21.6585 0.333496 20.3324 0.333496H13.6657C12.3396 0.333496 11.0679 0.86028 10.1302 1.79796C9.19251 2.73564 8.66572 4.00741 8.66572 5.3335V7.00016H5.33239C2.57097 7.00016 0.332392 9.23874 0.332392 12.0002V18.6309C0.33191 18.654 0.331912 18.6771 0.332392 18.7001V27.0002C0.332392 29.7616 2.57097 32.0002 5.33239 32.0002H28.6657C31.4272 32.0002 33.6657 29.7616 33.6657 27.0002V18.7001C33.6662 18.6771 33.6662 18.654 33.6657 18.6309V12.0002C33.6657 9.23874 31.4272 7.00016 28.6657 7.00016H25.3324ZM5.33239 10.3335C4.41192 10.3335 3.66573 11.0797 3.66573 12.0002V17.622C7.83947 19.5595 12.3894 20.5659 16.9991 20.5659C21.6087 20.5659 26.1586 19.5595 30.3324 17.622V12.0002C30.3324 11.0797 29.5862 10.3335 28.6657 10.3335H5.33239ZM30.3324 21.26C26.111 22.9993 21.5818 23.8992 16.9991 23.8992C12.4163 23.8992 7.88707 22.9993 3.66573 21.26V27.0002C3.66573 27.9206 4.41192 28.6668 5.33239 28.6668H28.6657C29.5862 28.6668 30.3324 27.9206 30.3324 27.0002V21.26ZM16.9991 15.3335C17.9195 15.3335 18.6657 16.0797 18.6657 17.0002V17.0168C18.6657 17.9373 17.9195 18.6835 16.9991 18.6835C16.0786 18.6835 15.3324 17.9373 15.3324 17.0168V17.0002C15.3324 16.0797 16.0786 15.3335 16.9991 15.3335Z" fill="black"/>
	</symbol>
	<symbol id="Cash" viewBox="0 0 34 34" fill="none"
		xmlns="http://www.w3.org/2000/svg">
		<path fill-rule="evenodd" clip-rule="evenodd" d="M16.9987 3.66659C9.6349 3.66659 3.66536 9.63612 3.66536 16.9999C3.66536 24.3637 9.6349 30.3333 16.9987 30.3333C24.3625 30.3333 30.332 24.3637 30.332 16.9999C30.332 9.63612 24.3625 3.66659 16.9987 3.66659ZM0.332031 16.9999C0.332031 7.79517 7.79395 0.333252 16.9987 0.333252C26.2034 0.333252 33.6654 7.79517 33.6654 16.9999C33.6654 26.2047 26.2034 33.6666 16.9987 33.6666C7.79395 33.6666 0.332031 26.2047 0.332031 16.9999ZM18.6654 8.66597C18.665 7.74578 17.919 6.99992 16.9987 6.99992C16.0782 6.99992 15.332 7.74611 15.332 8.66658C14.0059 8.66658 12.7342 9.19337 11.7965 10.1311C10.8588 11.0687 10.332 12.3405 10.332 13.6666C10.332 14.9927 10.8588 16.2644 11.7965 17.2021C12.7342 18.1398 14.0059 18.6666 15.332 18.6666V21.9999C15.3133 21.9999 15.2946 22.0002 15.276 22.0009C14.9739 22.011 14.6747 21.9389 14.4105 21.7921C14.1462 21.6453 13.9269 21.4294 13.776 21.1675C13.3162 20.3701 12.2971 20.0963 11.4996 20.556C10.7022 21.0157 10.4284 22.0349 10.8881 22.8323C11.341 23.6179 11.999 24.2656 12.7917 24.7059C13.568 25.1372 14.4449 25.3538 15.332 25.3339C15.3324 26.2541 16.0784 26.9999 16.9987 26.9999C17.9192 26.9999 18.6654 26.2537 18.6654 25.3333C19.9914 25.3333 21.2632 24.8065 22.2009 23.8688C23.1386 22.9311 23.6654 21.6593 23.6654 20.3333C23.6654 19.0072 23.1386 17.7354 22.2009 16.7977C21.2632 15.86 19.9914 15.3333 18.6654 15.3333V11.9999C18.6841 11.9999 18.7028 11.9996 18.7214 11.999C19.0235 11.9888 19.3227 12.061 19.5869 12.2078C19.8512 12.3546 20.0705 12.5704 20.2214 12.8323C20.6812 13.6298 21.7003 13.9036 22.4978 13.4438C23.2952 12.9841 23.569 11.965 23.1093 11.1675C22.6564 10.3819 21.9984 9.73429 21.2057 9.29391C20.4294 8.86262 19.5525 8.64606 18.6654 8.66597ZM18.6654 18.6666V21.9999C19.1074 21.9999 19.5313 21.8243 19.8439 21.5118C20.1564 21.1992 20.332 20.7753 20.332 20.3333C20.332 19.8912 20.1564 19.4673 19.8439 19.1547C19.5313 18.8422 19.1074 18.6666 18.6654 18.6666ZM15.332 15.3333V11.9999C14.89 11.9999 14.4661 12.1755 14.1535 12.4881C13.841 12.8006 13.6654 13.2246 13.6654 13.6666C13.6654 14.1086 13.841 14.5325 14.1535 14.8451C14.4661 15.1577 14.89 15.3333 15.332 15.3333Z" fill="black"/>
	</symbol>
	<symbol id="Support" viewBox="0 0 34 34" fill="none"
		xmlns="http://www.w3.org/2000/svg">
		<path fill-rule="evenodd" clip-rule="evenodd" d="M16.9987 3.66659C9.6349 3.66659 3.66536 9.63612 3.66536 16.9999C3.66536 24.3637 9.6349 30.3333 16.9987 30.3333C24.3625 30.3333 30.332 24.3637 30.332 16.9999C30.332 9.63612 24.3625 3.66659 16.9987 3.66659ZM0.332031 16.9999C0.332031 7.79517 7.79395 0.333252 16.9987 0.333252C26.2034 0.333252 33.6654 7.79517 33.6654 16.9999C33.6654 26.2047 26.2034 33.6666 16.9987 33.6666C7.79395 33.6666 0.332031 26.2047 0.332031 16.9999ZM14.4566 7.57473C15.289 7.16288 16.2055 6.94986 17.1342 6.95244C18.0629 6.95501 18.9782 7.17311 19.8083 7.58958C20.6383 8.00604 21.3604 8.60949 21.9176 9.35241C22.4748 10.0953 22.8519 10.9575 23.0193 11.8709C23.1867 12.7844 23.1397 13.7242 22.8822 14.6164C22.6246 15.5087 22.1635 16.3289 21.5351 17.0127C20.9066 17.6964 20.1281 18.2249 19.2607 18.5566C19.2466 18.562 19.2325 18.5672 19.2182 18.5722C19.0478 18.6321 18.9015 18.7458 18.8013 18.8961C18.7011 19.0464 18.6525 19.2252 18.6627 19.4055C18.7148 20.3245 18.0121 21.1118 17.0931 21.1639C16.1741 21.216 15.3868 20.5133 15.3347 19.5943C15.2836 18.6925 15.5268 17.7986 16.0278 17.0471C16.5236 16.3034 17.2452 15.7391 18.0859 15.4371C18.465 15.2893 18.8054 15.0567 19.0809 14.757C19.3602 14.4531 19.5651 14.0885 19.6796 13.692C19.7941 13.2954 19.8149 12.8777 19.7405 12.4717C19.6661 12.0658 19.4985 11.6826 19.2509 11.3524C19.0032 11.0222 18.6823 10.754 18.3134 10.5689C17.9445 10.3838 17.5377 10.2869 17.125 10.2858C16.7122 10.2846 16.3048 10.3793 15.9349 10.5623C15.565 10.7454 15.2426 11.0118 14.9931 11.3406C14.4368 12.0739 13.3913 12.2173 12.658 11.661C11.9247 11.1046 11.7812 10.0591 12.3376 9.32584C12.8989 8.58602 13.6243 7.98658 14.4566 7.57473ZM16.9987 23.6666C17.9192 23.6666 18.6654 24.4128 18.6654 25.3333V25.3499C18.6654 26.2704 17.9192 27.0166 16.9987 27.0166C16.0782 27.0166 15.332 26.2704 15.332 25.3499V25.3333C15.332 24.4128 16.0782 23.6666 16.9987 23.6666Z" fill="black"/>
	</symbol>
	<symbol id="VndaLogo" viewBox="0 0 120 32" fill="none"
		xmlns="http://www.w3.org/2000/svg">
		<path d="M46.5984 4.85533L40.4856 19.1183H36.5125L30.4202 4.85533H34.7803L38.6516 14.1461L42.6043 4.85533H46.5984ZM56.9215 9.11371C57.7569 9.92868 58.1743 11.1583 58.1743 12.8015V19.1178H54.303V13.4329C54.303 11.9252 53.6986 11.1716 52.4895 11.1716C51.8238 11.1716 51.2908 11.3889 50.8899 11.8234C50.4891 12.2586 50.2889 12.9104 50.2889 13.7796V19.1178H46.4176V8.07427H50.1054V9.27626C50.54 8.82787 51.0558 8.48507 51.654 8.24733C52.2517 8.01014 52.9036 7.89071 53.6102 7.89071C54.9825 7.89126 56.086 8.29875 56.9215 9.11371ZM71.6345 4V19.1183H67.9467V18.0181C67.2268 18.8739 66.1465 19.3019 64.7073 19.3019C63.7021 19.3019 62.7849 19.0675 61.9567 18.5992C61.1279 18.1303 60.4727 17.4619 59.9906 16.5921C59.5084 15.723 59.2674 14.7178 59.2674 13.5767C59.2674 12.4355 59.5084 11.4342 59.9906 10.5711C60.4727 9.70863 61.1279 9.04626 61.9567 8.58459C62.7849 8.12293 63.7021 7.89182 64.7073 7.89182C66.0248 7.89182 67.0433 8.27221 67.7637 9.03299V4H71.6345ZM67.1721 15.5217C67.6067 15.0529 67.824 14.4043 67.824 13.5761C67.824 12.7611 67.61 12.1226 67.182 11.6609C66.7541 11.1992 66.2007 10.9681 65.5217 10.9681C64.8422 10.9681 64.2854 11.1992 63.8509 11.6609C63.4157 12.1231 63.199 12.7611 63.199 13.5761C63.199 14.4049 63.4163 15.0534 63.8509 15.5217C64.2854 15.9906 64.8422 16.2245 65.5217 16.2245C66.1874 16.225 66.7375 15.9906 67.1721 15.5217ZM82.2091 9.14467C83.1734 9.9801 83.6555 11.2606 83.6555 12.9856V19.1183H80.049V17.6919C79.4917 18.765 78.4052 19.3013 76.7891 19.3013C75.9333 19.3013 75.1929 19.1515 74.5682 18.8529C73.9434 18.5544 73.4712 18.1502 73.1522 17.6404C72.8326 17.1312 72.6734 16.5501 72.6734 15.8983C72.6734 14.8522 73.0737 14.0411 73.8754 13.4633C74.6765 12.8861 75.9128 12.5975 77.5836 12.5975H79.7841C79.7161 11.4292 78.9349 10.8454 77.441 10.8454C76.9113 10.8454 76.3745 10.9305 75.8315 11.1003C75.288 11.27 74.8264 11.5044 74.446 11.803L73.1417 9.17453C73.7532 8.76705 74.4968 8.45135 75.3726 8.22687C76.2484 8.0024 77.1281 7.89071 78.011 7.89071C79.8455 7.89126 81.2443 8.30925 82.2091 9.14467ZM79.051 16.5302C79.3905 16.3129 79.6349 15.9939 79.7847 15.5726V14.615H78.1139C76.986 14.615 76.4226 14.9888 76.4226 15.7357C76.4226 16.0752 76.5514 16.3472 76.8096 16.5507C77.0672 16.7541 77.4211 16.8564 77.8689 16.8564C78.3173 16.8564 78.7115 16.7481 79.051 16.5302ZM85.6067 18.6495C85.1583 18.2149 84.9344 17.6648 84.9344 16.9991C84.9344 16.3201 85.155 15.77 85.5967 15.3487C86.0379 14.9279 86.5914 14.7173 87.2571 14.7173C87.936 14.7173 88.4928 14.9279 88.9279 15.3487C89.3625 15.77 89.5798 16.3201 89.5798 16.9991C89.5798 17.6648 89.3586 18.2149 88.9174 18.6495C88.4756 19.0846 87.9222 19.3013 87.2571 19.3013C86.6052 19.3013 86.0551 19.0846 85.6067 18.6495ZM58.7571 21.7595V23.7886C58.9876 23.4558 59.3907 23.2827 59.7749 23.2827C60.6966 23.2827 61.375 24.0252 61.375 24.9663C61.375 25.8111 60.7414 26.6371 59.7622 26.6371C59.3846 26.6371 59.0136 26.4773 58.7571 26.2147V26.5603H58.1749V21.7595H58.7571ZM58.7571 25.6126C58.9749 25.9261 59.3525 26.0992 59.6854 26.0992C60.4279 26.0992 60.7801 25.5037 60.7801 24.9536C60.7801 24.3581 60.3643 23.8207 59.6986 23.8207C59.3531 23.8207 58.918 24.0319 58.7576 24.4289V25.6126H58.7571ZM62.3288 23.3596L63.1609 25.7857H63.1736L64.025 23.3596H64.6586L62.8601 28L62.3481 27.8015L62.854 26.4635L61.6824 23.359H62.3288V23.3596ZM72.0696 20.9539H71.0114V26.5492H72.0696V20.9539ZM68.3558 22.6253C67.2473 22.6253 66.3488 23.5238 66.3488 24.6323C66.3488 25.7409 67.2473 26.6393 68.3558 26.6393C69.4644 26.6393 70.3629 25.7409 70.3629 24.6323C70.3629 23.5238 69.4644 22.6253 68.3558 22.6253ZM68.3558 25.617C67.8118 25.617 67.3706 25.1758 67.3706 24.6318C67.3706 24.0877 67.8118 23.6465 68.3558 23.6465C68.8999 23.6465 69.3411 24.0877 69.3411 24.6318C69.3417 25.1764 68.9004 25.617 68.3558 25.617ZM76.2102 24.1696C75.8824 24.0352 75.5916 23.9086 75.5916 23.662C75.5916 23.4757 75.7701 23.3634 75.9714 23.3634C76.2694 23.3634 76.5453 23.5127 76.7466 23.6919L77.1844 22.9018C76.7416 22.6364 76.4933 22.5352 75.9714 22.5352C75.256 22.5352 74.5709 22.9383 74.5709 23.7361C74.5709 24.4222 75.0851 24.6909 75.5545 24.8927C75.9421 25.0641 76.2998 25.1836 76.2998 25.4595C76.2998 25.6983 76.0167 25.8028 75.8006 25.8028C75.4207 25.8028 75.1747 25.6314 74.8767 25.34L74.4548 26.0892C74.8977 26.4436 75.2416 26.6382 75.8525 26.6382C76.6128 26.6382 77.3575 26.2429 77.3575 25.3776C77.3575 24.6318 76.7167 24.3785 76.2102 24.1696ZM73.9074 22.6253H72.8492V26.5498H73.9074V22.6253ZM79.9605 25.6242C79.8262 25.6911 79.6996 25.7359 79.5359 25.7359C79.3125 25.7359 79.223 25.5944 79.1931 25.3627C79.1782 25.251 79.1782 25.1465 79.1782 25.0271V23.5055H80.1767V22.6253H79.1782V21.76H78.2841L78.1205 22.6253H77.6511V23.5055H78.1205V25.1393C78.1205 25.3704 78.1354 25.6021 78.1951 25.7956C78.3367 26.3032 78.7464 26.6388 79.3573 26.6388C79.6631 26.6388 80.0352 26.5569 80.2884 26.4077L79.9605 25.6242ZM73.9074 20.9534H72.8492V21.8562H73.9074V20.9534Z" fill="white"/>
	</symbol>
	<symbol id="VTEXLogo" viewBox="0 0 120 32" fill="none"
		xmlns="http://www.w3.org/2000/svg">
		<g clip-path="url(#clip0_129_1022)">
			<path d="M74.8696 12.9882H72.4769V21.1788C72.4758 21.3332 72.3508 21.458 72.1964 21.4592H70.3537C70.1993 21.458 70.0744 21.3332 70.0732 21.1788V12.9882H67.6629C67.5899 12.9912 67.5189 12.9644 67.466 12.914C67.4131 12.8636 67.383 12.7939 67.3824 12.7209V11.2703C67.3829 11.1973 67.4131 11.1276 67.466 11.0772C67.5189 11.0268 67.5899 11 67.6629 11.003H74.8653C75.0206 10.9956 75.1528 11.115 75.1611 11.2703V12.7209C75.1528 12.8744 75.0233 12.9932 74.8696 12.9882Z" fill="white"/>
			<path d="M82.5431 21.4044C81.5998 21.5394 80.6474 21.6009 79.6946 21.5885C77.8781 21.5885 76.2742 21.124 76.2742 18.5625V13.8888C76.2742 11.3273 77.8934 10.8781 79.7077 10.8781C80.6532 10.8652 81.5983 10.926 82.5343 11.06C82.7315 11.0885 82.8148 11.1586 82.8148 11.3404V12.6551C82.8137 12.8095 82.6887 12.9344 82.5343 12.9356H79.5762C78.9189 12.9356 78.6757 13.1547 78.6757 13.8931V15.1728H82.4313C82.5857 15.174 82.7106 15.2988 82.7118 15.4532V16.7899C82.7107 16.9443 82.5857 17.0691 82.4313 17.0703H78.6757V18.5625C78.6757 19.2943 78.9145 19.52 79.5762 19.52H82.5431C82.6975 19.5212 82.8223 19.6461 82.8235 19.8005V21.1152C82.8257 21.2905 82.7403 21.3759 82.5431 21.4044Z" fill="white"/>
			<path d="M93.1615 21.4592H90.9243C90.7683 21.4708 90.6219 21.3831 90.5584 21.2401L88.617 18.1725L86.8641 21.1832C86.7655 21.3519 86.6669 21.4636 86.5113 21.4636H84.4341C84.3797 21.4734 84.3238 21.4585 84.2815 21.4229C84.2391 21.3874 84.2148 21.3348 84.215 21.2796C84.2179 21.2451 84.2276 21.2116 84.2435 21.181L87.2958 16.0997L84.215 11.2704C84.1991 11.2444 84.1894 11.2152 84.1865 11.1849C84.197 11.074 84.2946 10.992 84.4056 11.0008H86.6713C86.8269 11.0008 86.9386 11.1411 87.0241 11.2682L88.8252 14.1167L90.5781 11.2682C90.6417 11.1241 90.775 11.023 90.9309 11.0008H93.0147C93.1258 10.992 93.2234 11.074 93.2338 11.1849C93.231 11.2152 93.2212 11.2444 93.2053 11.2704L90.1377 16.1282L93.3302 21.1678C93.3549 21.2107 93.3692 21.2587 93.3719 21.308C93.3456 21.4045 93.2733 21.4592 93.1615 21.4592Z" fill="white"/>
			<path d="M64.0124 11.0315C63.9073 11.0292 63.8154 11.1018 63.7933 11.2046L61.749 18.7685C61.7205 18.9241 61.6789 18.9876 61.5518 18.9876C61.4247 18.9876 61.3831 18.9306 61.3546 18.7685L59.3168 11.2046C59.2947 11.1018 59.2028 11.0292 59.0977 11.0315H57.0862C57.0187 11.0298 56.9542 11.0594 56.9114 11.1116C56.8685 11.1639 56.8522 11.2329 56.8671 11.2988C56.8671 11.2988 59.3628 19.9692 59.3891 20.0635C59.7222 21.0977 60.5307 21.5973 61.5584 21.5973C62.5443 21.6326 63.4323 21.0048 63.7276 20.0635C63.767 19.9451 66.208 11.2988 66.208 11.2988C66.2221 11.2333 66.2054 11.1649 66.1627 11.1132C66.1199 11.0615 66.0559 11.0322 65.9889 11.0337L64.0124 11.0315Z" fill="white"/>
			<path d="M52.6119 4.00009H31.6381C30.8792 4.00703 30.1786 4.40856 29.7889 5.05989C29.3993 5.71122 29.3768 6.51842 29.7296 7.19042L31.8288 11.1871H28.0249C27.5389 11.1782 27.0846 11.4272 26.8306 11.8416C26.5765 12.256 26.5607 12.7739 26.7891 13.203L33.5379 25.9555C33.78 26.4135 34.2556 26.7 34.7737 26.7C35.2917 26.7 35.7673 26.4135 36.0095 25.9555L37.8413 22.5L40.142 26.8517C40.5161 27.5582 41.25 28 42.0494 28C42.8488 28 43.5827 27.5582 43.9568 26.8517L54.4744 7.07648C54.8226 6.42558 54.8017 5.63926 54.4194 5.00777C54.0371 4.37628 53.3501 3.99326 52.6119 4.00009ZM43.2403 12.355L38.6389 20.9838C38.4808 21.2818 38.171 21.4681 37.8336 21.4681C37.4963 21.4681 37.1865 21.2818 37.0284 20.9838L32.4861 12.4382C32.346 12.1753 32.3542 11.858 32.5077 11.6026C32.6612 11.3472 32.9375 11.1911 33.2355 11.1915H42.5304C42.8104 11.1872 43.0719 11.3313 43.2178 11.5704C43.3637 11.8095 43.3723 12.1079 43.2403 12.355Z" fill="white"/>
		</g>
		<defs>
			<clipPath id="clip0_129_1022">
				<rect width="66.7435" height="24" fill="white" transform="translate(26.6283 4)"/>
			</clipPath>
		</defs>
	</symbol>
	<symbol id="DecoLogo" viewBox="0 0 120 32" fill="none"
		xmlns="http://www.w3.org/2000/svg">
		<path d="M84.7363 24.3319C82.1331 24.3319 81.687 21.7622 82.5089 19.2614C83.1597 17.2738 84.7011 15.1839 86.9973 15.1839C89.7045 15.1839 89.9779 17.9246 89.1896 20.3231C88.5036 22.3795 86.9622 24.3319 84.7363 24.3319ZM83.948 27.9968C88.47 27.9968 92.5123 25.4959 94.1225 20.9739C95.8015 16.2121 93.9163 11.4502 87.7505 11.4502C82.8175 11.4502 79.0486 14.5331 77.6095 18.6106C75.9993 23.2014 77.747 27.9968 83.948 27.9968ZM68.9429 27.9968C70.7242 27.9968 72.5406 27.6194 73.8071 27.0726C74.2532 25.8397 74.2868 24.6405 73.9446 23.4412C73.0539 23.7834 71.8211 24.1272 70.5531 24.1272C67.1264 24.1272 66.8194 21.5927 67.5389 19.4341C68.3272 17.1395 70.382 15.2894 73.6376 15.2894C74.4946 15.2894 75.3165 15.4269 75.8298 15.7356C76.7205 14.5363 77.2337 13.337 77.3377 12.1042C76.5845 11.762 75.3165 11.4534 73.6727 11.4534C68.3288 11.4534 64.1138 14.5715 62.6076 18.8872C61.1685 22.9647 62.2654 28 68.9461 28L68.9429 27.9968ZM50.5462 18.1645C51.4704 16.1081 52.9095 14.9105 54.7948 14.9105C56.4737 14.9105 56.7472 15.8347 56.4737 16.5543C56.0628 17.5472 54.6573 18.1645 50.5462 18.1645ZM52.0189 27.9968C53.7666 27.9968 56.2323 27.6546 58.2886 26.6264C58.6308 25.4959 58.5972 24.3654 58.2199 23.1998C56.9183 23.8506 55.1018 24.2279 53.458 24.2279C51.0259 24.2279 49.6891 23.4396 49.7243 21.4536C56.3698 21.6247 59.8301 20.4255 60.9606 17.4801C62.0911 14.4995 60.1387 11.4502 55.5127 11.4502C50.5798 11.4502 46.9484 14.9792 45.6116 18.7817C44.2077 22.824 45.0984 27.9968 52.0173 27.9968H52.0189ZM32.1607 27.9968C36.7179 27.9968 39.3099 25.9069 42.3241 19.5012C43.9679 15.9722 45.3734 12.5119 46.9836 9.08686L48.9024 9.70408C49.4157 9.87517 49.6907 9.56656 49.4509 9.08686L47.1211 4.32499C46.95 3.9828 46.5727 3.94763 46.3328 4.05156L40.5428 6.24381C40.0631 6.4149 40.0966 6.86103 40.5763 6.99695L42.2889 7.54541C40.885 10.7322 39.1372 15.5277 37.7317 18.5418C36.1551 21.8998 35.3684 24.2631 32.6964 24.2631C30.0245 24.2631 29.5783 22.1732 30.7088 19.1926C32.0104 15.7324 34.2027 14.7042 36.7035 15.4237C37.3895 14.4643 37.9028 13.0252 38.1075 11.7236C37.3879 11.5174 36.5308 11.4502 35.8129 11.4502C31.7706 11.4502 27.7618 13.5401 26.1181 17.9246C23.9946 23.5771 25.9582 27.9968 32.1591 27.9968H32.1607Z" fill="#02F67C"/>
	</symbol>
	<symbol id="OCCLogo" viewBox="0 0 120 32" fill="none"
		xmlns="http://www.w3.org/2000/svg">
		<g clip-path="url(#clip0_129_1009)">
			<path d="M52.5753 18.1093H59.6873L55.9306 12.0427L49.0239 23H45.8833L54.2833 9.854C54.4664 9.59167 54.7097 9.37705 54.9928 9.22812C55.276 9.07918 55.5907 9.00026 55.9106 8.99798C56.2305 8.99569 56.5463 9.0701 56.8315 9.21498C57.1167 9.35986 57.3631 9.57098 57.5499 9.83066L65.9733 23H62.8326L61.3533 20.55H54.1573L52.5893 18.1093M85.2233 20.55V9.13067H82.5539V21.6747C82.5534 21.849 82.5883 22.0216 82.6565 22.182C82.7247 22.3424 82.8248 22.4874 82.9506 22.608C83.0769 22.7373 83.228 22.8398 83.3947 22.9096C83.5614 22.9793 83.7405 23.0148 83.9213 23.014H96.0546L97.6366 20.564H85.2093M41.0906 18.5107C42.3345 18.5107 43.5274 18.0165 44.4069 17.137C45.2865 16.2574 45.7806 15.0645 45.7806 13.8207C45.7806 12.5768 45.2865 11.3839 44.4069 10.5043C43.5274 9.62479 42.3345 9.13067 41.0906 9.13067H29.4239V23H32.0886V11.5853H40.9273C41.5226 11.5853 42.0935 11.8218 42.5145 12.2428C42.9354 12.6637 43.1719 13.2347 43.1719 13.83C43.1719 14.4253 42.9354 14.9963 42.5145 15.4172C42.0935 15.8382 41.5226 16.0747 40.9273 16.0747H33.4093L41.3706 23H45.2393L39.8913 18.5107H41.0906ZM13.0346 23H21.0939C22.9014 22.9531 24.619 22.2022 25.8808 20.9072C27.1426 19.6122 27.8487 17.8757 27.8487 16.0677C27.8487 14.2596 27.1426 12.5231 25.8808 11.2281C24.619 9.93318 22.9014 9.18223 21.0939 9.13533H13.0346C12.1091 9.11132 11.1881 9.27287 10.3261 9.61045C9.46401 9.94804 8.67826 10.4548 8.01518 11.1009C7.35209 11.747 6.82509 12.5194 6.46526 13.3724C6.10543 14.2254 5.92004 15.1419 5.92004 16.0677C5.92004 16.9935 6.10543 17.9099 6.46526 18.7629C6.82509 19.616 7.35209 20.3883 8.01518 21.0344C8.67826 21.6805 9.46401 22.1873 10.3261 22.5249C11.1881 22.8625 12.1091 23.024 13.0346 23ZM20.9119 20.5593H13.2119C12.0469 20.5218 10.9422 20.0326 10.1314 19.1952C9.32065 18.3578 8.86731 17.2379 8.86731 16.0723C8.86731 14.9067 9.32065 13.7869 10.1314 12.9495C10.9422 12.1121 12.0469 11.6229 13.2119 11.5853H20.9119C21.5133 11.5659 22.1125 11.6676 22.6739 11.8844C23.2352 12.1012 23.7472 12.4286 24.1795 12.8471C24.6118 13.2657 24.9555 13.7669 25.1903 14.321C25.425 14.875 25.546 15.4706 25.546 16.0723C25.546 16.6741 25.425 17.2697 25.1903 17.8237C24.9555 18.3778 24.6118 18.879 24.1795 19.2975C23.7472 19.7161 23.2352 20.0435 22.6739 20.2603C22.1125 20.477 21.5133 20.5787 20.9119 20.5593ZM71.5406 23H79.7679L81.3266 20.5593H71.7226C71.1212 20.5787 70.522 20.477 69.9607 20.2603C69.3993 20.0435 68.8873 19.7161 68.455 19.2975C68.0227 18.879 67.679 18.3778 67.4442 17.8237C67.2095 17.2697 67.0885 16.6741 67.0885 16.0723C67.0885 15.4706 67.2095 14.875 67.4442 14.321C67.679 13.7669 68.0227 13.2657 68.455 12.8471C68.8873 12.4286 69.3993 12.1012 69.9607 11.8844C70.522 11.6676 71.1212 11.5659 71.7226 11.5853H79.5393L81.1166 9.13533H71.5406C70.6151 9.11132 69.6941 9.27287 68.8321 9.61045C67.97 9.94804 67.1843 10.4548 66.5212 11.1009C65.8581 11.747 65.3311 12.5194 64.9713 13.3724C64.6114 14.2254 64.426 15.1419 64.426 16.0677C64.426 16.9935 64.6114 17.9099 64.9713 18.7629C65.3311 19.616 65.8581 20.3883 66.5212 21.0344C67.1843 21.6805 67.97 22.1873 68.8321 22.5249C69.6941 22.8625 70.6151 23.024 71.5406 23ZM104.147 20.5593C103.169 20.5597 102.218 20.2408 101.438 19.6512C100.658 19.0616 100.092 18.2335 99.8253 17.2927H111.221L112.789 14.8473H99.8253C100.091 13.9061 100.657 13.0776 101.437 12.4878C102.217 11.8981 103.169 11.5795 104.147 11.5807H111.968L113.531 9.13067H103.965C102.157 9.17756 100.44 9.92851 99.1777 11.2235C97.9159 12.5184 97.2098 14.255 97.2098 16.063C97.2098 17.871 97.9159 19.6076 99.1777 20.9025C100.44 22.1975 102.157 22.9484 103.965 22.9953H112.192L113.755 20.5547H104.142" fill="white"/>
		</g>
		<defs>
			<clipPath id="clip0_129_1009">
				<rect width="107.8" height="14" fill="white" transform="translate(6.09998 9)"/>
			</clipPath>
		</defs>
	</symbol>
	<symbol id="ArrowRight" viewBox="0 0 20 20" fill="none"
		xmlns="http://www.w3.org/2000/svg">
		<path fill-rule="evenodd" clip-rule="evenodd" d="M10.2442 4.4107C10.5697 4.08527 11.0973 4.08527 11.4228 4.4107L16.4228 9.4107C16.7482 9.73614 16.7482 10.2638 16.4228 10.5892L11.4228 15.5892C11.0973 15.9147 10.5697 15.9147 10.2442 15.5892C9.9188 15.2638 9.9188 14.7361 10.2442 14.4107L13.8217 10.8333H4.16683C3.70659 10.8333 3.3335 10.4602 3.3335 9.99996C3.3335 9.53972 3.70659 9.16663 4.16683 9.16663H13.8217L10.2442 5.58921C9.9188 5.26378 9.9188 4.73614 10.2442 4.4107Z" fill="currentColor"/>
	</symbol>
	<svg id="ShopifyLogo" viewBox="0 0 120 32" fill="none"
		xmlns="http://www.w3.org/2000/svg">
		<path d="M46.9819 17.3213C46.2649 16.9251 45.8876 16.6044 45.8876 16.1516C45.8876 15.5667 46.397 15.2082 47.2083 15.2082C48.1516 15.2082 48.9818 15.6044 48.9818 15.6044L49.6421 13.5857C49.6421 13.5857 49.0384 13.114 47.246 13.114C44.7556 13.114 43.0198 14.5479 43.0198 16.5478C43.0198 17.6798 43.8311 18.5477 44.9065 19.1703C45.7744 19.6608 46.0762 20.0193 46.0762 20.5287C46.0762 21.0759 45.6423 21.5098 44.831 21.5098C43.6235 21.5098 42.4915 20.8872 42.4915 20.8872L41.7935 22.9059C41.7935 22.9059 42.85 23.604 44.6046 23.604C47.1705 23.604 49.0006 22.3399 49.0006 20.0759C49.0384 18.8307 48.095 17.9628 46.9819 17.3213Z" fill="currentColor"/>
		<path d="M57.2077 13.0762C55.9437 13.0762 54.9626 13.68 54.189 14.5856L54.1513 14.5667L55.2456 8.83118H52.3778L49.6044 23.4153H52.4533L53.3966 18.4344C53.774 16.5477 54.7362 15.3969 55.6418 15.3969C56.2833 15.3969 56.5285 15.8308 56.5285 16.4534C56.5285 16.8496 56.4908 17.3213 56.3965 17.7175L55.321 23.4342H58.17L59.2831 17.5477C59.4152 16.9251 59.4906 16.1893 59.4906 15.6799C59.5284 14.0384 58.6982 13.0762 57.2077 13.0762Z" fill="currentColor"/>
		<path d="M65.9808 13.0762C62.5471 13.0762 60.2642 16.1704 60.2642 19.6231C60.2642 21.8305 61.6226 23.6228 64.1885 23.6228C67.5657 23.6228 69.8297 20.6041 69.8297 17.076C69.8486 15.0195 68.6599 13.0762 65.9808 13.0762ZM64.5847 21.4154C63.6036 21.4154 63.2074 20.5853 63.2074 19.5476C63.2074 17.9062 64.0564 15.2459 65.6035 15.2459C66.6223 15.2459 66.9431 16.1138 66.9431 16.9628C66.9431 18.7363 66.094 21.4154 64.5847 21.4154Z" fill="currentColor"/>
		<path d="M77.1501 13.0762C75.2257 13.0762 74.1314 14.7743 74.1314 14.7743H74.0937L74.2635 13.246H71.7353C71.6033 14.2837 71.3769 15.8497 71.1505 17.0383L69.1694 27.4528H72.0183L72.8107 23.2266H72.8674C72.8674 23.2266 73.4522 23.604 74.5465 23.604C77.9048 23.604 80.0934 20.1702 80.0934 16.6987C80.0934 14.7931 79.2444 13.0762 77.1501 13.0762ZM74.4333 21.472C73.6975 21.472 73.2636 21.0569 73.2636 21.0569L73.7352 18.3967C74.0748 16.6232 74.9993 15.4346 75.9804 15.4346C76.8483 15.4346 77.1124 16.2459 77.1124 17.0006C77.1124 18.8306 76.0181 21.472 74.4333 21.472Z" fill="currentColor"/>
		<path d="M84.1685 8.98218C83.2629 8.98218 82.5271 9.69912 82.5271 10.6425C82.5271 11.4915 83.0554 12.0764 83.8667 12.0764H83.9044C84.7911 12.0764 85.5647 11.4726 85.5835 10.4161C85.6024 9.56705 85.0364 8.98218 84.1685 8.98218Z" fill="currentColor"/>
		<path d="M80.1688 23.4153H83.0366L84.9799 13.3027H82.0933L80.1688 23.4153Z" fill="currentColor"/>
		<path d="M92.2247 13.2838H90.2437L90.338 12.8121C90.5078 11.831 91.0738 10.9631 92.036 10.9631C92.5454 10.9631 92.9416 11.1141 92.9416 11.1141L93.5076 8.88779C93.5076 8.88779 93.0171 8.64252 91.9605 8.64252C90.9417 8.64252 89.9418 8.92552 89.1682 9.58586C88.1872 10.416 87.7344 11.6046 87.508 12.8121L87.4325 13.2838H86.1118L85.6967 15.4346H87.0174L85.5081 23.4153H88.357L89.8663 15.4346H91.8285L92.2247 13.2838Z" fill="currentColor"/>
		<path d="M99.0923 13.3027C99.0923 13.3027 97.2999 17.793 96.5075 20.2457H96.4698C96.4132 19.4533 95.7717 13.3027 95.7717 13.3027H92.7719L94.4887 22.5852C94.5265 22.7927 94.5076 22.9248 94.4321 23.0569C94.0925 23.6983 93.5454 24.321 92.8851 24.7738C92.3568 25.17 91.753 25.4152 91.2814 25.585L92.0738 28C92.6587 27.8679 93.8473 27.3963 94.8661 26.4529C96.1679 25.2266 97.3754 23.3587 98.6017 20.7928L102.092 13.3027H99.0923Z" fill="currentColor"/>
		<path d="M31.9638 6.73699C31.9638 6.73699 31.6997 6.81246 31.2657 6.94452C31.1903 6.69925 31.0771 6.41625 30.9261 6.11438C30.4356 5.17103 29.6998 4.66163 28.8319 4.66163C28.7753 4.66163 28.7187 4.66163 28.6432 4.68049C28.6244 4.64276 28.5866 4.62389 28.5678 4.58616C28.1904 4.17109 27.6999 3.98242 27.115 4.00128C25.983 4.03902 24.851 4.8503 23.9454 6.30305C23.3039 7.32186 22.8134 8.60481 22.6813 9.60476C21.3795 10.001 20.4739 10.284 20.455 10.3028C19.7947 10.5104 19.7758 10.5292 19.7003 11.1518C19.6437 11.6235 17.908 24.9058 17.908 24.9058L32.1713 27.3774V6.71812C32.0581 6.71812 32.0015 6.73699 31.9638 6.73699ZM28.6621 7.7558C27.9074 7.9822 27.0773 8.24634 26.266 8.49161C26.4924 7.60487 26.9452 6.71812 27.4735 6.13325C27.681 5.92571 27.964 5.68044 28.2848 5.5295C28.6055 6.20871 28.681 7.13319 28.6621 7.7558ZM27.115 4.77483C27.3791 4.77483 27.6056 4.83143 27.7942 4.94463C27.4924 5.09557 27.1905 5.34084 26.9075 5.62384C26.1905 6.39738 25.6434 7.60487 25.417 8.75575C24.7378 8.96328 24.0586 9.17082 23.436 9.35949C23.851 7.54826 25.3793 4.81256 27.115 4.77483ZM24.9265 15.1516C25.0019 16.3591 28.1904 16.6233 28.3791 19.4722C28.5112 21.7173 27.1905 23.2455 25.2849 23.3587C22.9832 23.5097 21.7191 22.1513 21.7191 22.1513L22.2096 20.0759C22.2096 20.0759 23.4737 21.0381 24.4925 20.9626C25.1529 20.9249 25.3981 20.3778 25.3793 20.0004C25.2849 18.4156 22.6813 18.5099 22.5115 15.9063C22.3606 13.7177 23.7944 11.5103 26.9641 11.3028C28.1904 11.2273 28.813 11.5292 28.813 11.5292L28.0961 14.246C28.0961 14.246 27.2848 13.8687 26.3226 13.9441C24.9265 14.0385 24.9076 14.9252 24.9265 15.1516ZM29.4168 7.5294C29.4168 6.96339 29.3413 6.15211 29.0772 5.4729C29.9451 5.64271 30.3601 6.60492 30.5488 7.18979C30.2092 7.28413 29.8318 7.39733 29.4168 7.5294Z" fill="currentColor"/>
		<path d="M32.6053 27.3397L38.5296 25.868C38.5296 25.868 35.9825 8.64254 35.9637 8.52934C35.9448 8.41614 35.8505 8.34067 35.7561 8.34067C35.6618 8.34067 34.0015 8.30294 34.0015 8.30294C34.0015 8.30294 32.9827 7.32186 32.6053 6.94452V27.3397Z" fill="currentColor"/>
	</svg>
</svg>